<?xml version="1.0" encoding="UTF-8"?>
<svg version="1.1" xmlns="http://www.w3.org/2000/svg" width="846" height="846">
<path d="M0 0 C5.20921108 2.96164136 8.22483571 7.09906217 10.2265625 12.66796875 C11.84740365 19.6506834 12.26674582 26.84432766 12.76635742 33.98217773 C12.95356227 36.20237096 12.95356227 36.20237096 14 39 C14.09653784 41.46681491 14.14000913 43.90445918 14.1328125 46.37109375 C14.13424759 47.44920067 14.13424759 47.44920067 14.13571167 48.54908752 C14.13639158 50.06796354 14.13455044 51.58684248 14.13037109 53.10571289 C14.12502796 55.42535977 14.13031838 57.74481233 14.13671875 60.06445312 C14.13605778 61.54166709 14.13477623 63.01888094 14.1328125 64.49609375 C14.13483673 65.18787216 14.13686096 65.87965057 14.13894653 66.59239197 C14.12293748 69.89713607 13.91285062 72.82621084 13 76 C12.84441352 78.64785142 12.72413189 81.28766146 12.625 83.9375 C12.29429311 91.05985108 11.57455254 98.06759521 10.5625 105.125 C10.4402002 105.98859131 10.31790039 106.85218262 10.19189453 107.74194336 C9.53121359 112.16867751 8.65906373 116.42569491 7.5090332 120.7565918 C6.87884728 123.53394359 6.49721632 126.31648814 6.1015625 129.13671875 C5.05510316 136.1947314 3.31536427 142.95292874 1.375 149.8125 C1.02018555 151.07513672 0.66537109 152.33777344 0.29980469 153.63867188 C-9.6285381 188.67725537 -23.45427739 222.64065414 -40.72265625 254.71484375 C-42.63835598 258.28106468 -44.39567142 261.90171352 -46.125 265.5625 C-51.85971709 277.16912838 -59.11357047 288.05442929 -66 299 C-66.61190186 299.97485352 -67.22380371 300.94970703 -67.85424805 301.95410156 C-71.3732564 307.52783291 -74.99319159 313.00270053 -78.8125 318.375 C-79.32675537 319.09977539 -79.84101074 319.82455078 -80.37084961 320.57128906 C-87.60087608 330.7051512 -95.25100763 340.42399943 -103.34765625 349.87890625 C-105.78551219 352.73111869 -108.14732338 355.63947753 -110.5 358.5625 C-118.83391399 368.77387187 -128.02060453 378.20727527 -137.33398438 387.51928711 C-139.00421095 389.1917165 -140.66622379 390.87203669 -142.328125 392.55273438 C-148.90911028 399.16764445 -155.67606512 405.20590272 -163 411 C-164.02783199 411.86305258 -165.05125578 412.73144114 -166.06640625 413.609375 C-192.2531953 436.06690301 -222.99307857 455.11900407 -255 468 C-255.84498047 468.34015137 -256.68996094 468.68030273 -257.56054688 469.03076172 C-271.099789 474.39354772 -284.69644655 478.28034739 -299 481 C-299.94762207 481.18618896 -300.89524414 481.37237793 -301.87158203 481.56420898 C-309.16096291 482.90379205 -316.21992963 483.35100994 -323.625 483.3125 C-324.75583008 483.30758545 -325.88666016 483.3026709 -327.05175781 483.29760742 C-346.90967653 483.02282072 -367.97901835 479.05183259 -383.9921875 466.4296875 C-385.4375 464.9375 -385.4375 464.9375 -387 462 C-386.79281833 458.6160327 -386.07737691 456.95766836 -383.5234375 454.6875 C-379.68831174 452.07635054 -375.65841392 450.44968829 -371.3125 448.875 C-357.86329761 443.91010753 -344.24961225 436.91516677 -333 428 C-332.10410156 427.31550781 -331.20820313 426.63101562 -330.28515625 425.92578125 C-308.39971881 408.72364729 -296.90422908 383.99998596 -292 357 C-291.77570313 355.77152344 -291.55140625 354.54304688 -291.3203125 353.27734375 C-289.25206219 340.03204211 -289.19735216 326.69750623 -291.125 313.4375 C-291.21740967 312.7559082 -291.30981934 312.07431641 -291.4050293 311.37207031 C-293.82068695 296.81459848 -300.13793613 282.61448611 -305.421875 268.91333008 C-306.37484102 266.43791298 -307.31657995 263.95841416 -308.2578125 261.47851562 C-313.70163232 247.24385212 -319.45142967 233.1026519 -327.9375 220.375 C-328.97674436 218.77440002 -330.01448942 217.17282564 -331.05078125 215.5703125 C-331.55174316 214.79977539 -332.05270508 214.02923828 -332.56884766 213.23535156 C-334.66938771 209.9544671 -336.64899882 206.60680525 -338.625 203.25 C-344.4126119 193.48964724 -350.59997477 183.93115892 -357.54516602 174.95019531 C-359.0351465 172.95288635 -360.40830157 170.90862743 -361.7734375 168.82421875 C-364.84947208 164.18371449 -368.08862677 159.68040026 -371.375 155.1875 C-375.0430697 150.14681225 -378.65480436 145.09727571 -382.0625 139.875 C-385.15113046 135.16077455 -388.46669779 130.67148912 -391.875 126.1875 C-429.77875717 76.14598948 -429.77875717 76.14598948 -427 56 C-424.87625723 51.75251447 -422.26527789 48.19297629 -418.8125 44.9375 C-412.68071063 42.89357021 -407.56887093 42.92404838 -401.55859375 45.44140625 C-393.28736196 49.73264215 -386.67585271 55.53743331 -380 62 C-378.67477234 63.15519845 -377.34206518 64.30190639 -376 65.4375 C-370.7308222 70.01136361 -365.89754079 75.03657301 -361 80 C-359.33464104 81.66797334 -357.66796318 83.33463085 -356 85 C-352.33333333 88.66666667 -348.66666667 92.33333333 -345 96 C-344.25331055 96.73653809 -343.50662109 97.47307617 -342.73730469 98.23193359 C-340.19858484 100.79918347 -337.73511269 103.41681246 -335.28326416 106.06613159 C-326.0721044 116.00845236 -316.53751944 125.61569489 -306.94335938 135.18701172 C-304.20844113 137.91647599 -301.47903157 140.65136998 -298.75 143.38671875 C-297.00552963 145.13052981 -295.26074988 146.87403144 -293.515625 148.6171875 C-292.29700775 149.83884109 -292.29700775 149.83884109 -291.05377197 151.08517456 C-290.30158386 151.83421051 -289.54939575 152.58324646 -288.77441406 153.35498047 C-288.11572327 154.01287567 -287.45703247 154.67077087 -286.77838135 155.34860229 C-284.89619923 157.18454073 -284.89619923 157.18454073 -282 159 C-282 159.66 -282 160.32 -282 161 C-281.43410156 161.2475 -280.86820313 161.495 -280.28515625 161.75 C-277.63006909 163.20235537 -275.66260716 164.95184721 -273.4375 167 C-271.00270422 169.23360692 -268.75662332 171.16225112 -266 173 C-266 173.66 -266 174.32 -266 175 C-265.46375 175.23460937 -264.9275 175.46921875 -264.375 175.7109375 C-261.3249816 177.36637512 -258.70753292 179.474556 -256 181.625 C-231.95697461 200.35591915 -199.79069205 219.57198787 -168 216 C-150.36113371 212.95851989 -136.44545524 205.55259002 -123.42578125 193.26953125 C-121 191 -121 191 -117.875 188.5625 C-103.35612634 175.62176479 -92.58956185 156.74367942 -83 140 C-83.66 139.34 -84.32 138.68 -85 138 C-82.55806664 133.06117014 -80.00969539 128.18415067 -77.4375 123.3125 C-76.78865845 122.08140503 -76.78865845 122.08140503 -76.12670898 120.82543945 C-74.28755859 117.33593112 -72.44693383 113.84720112 -70.60644531 110.35839844 C-69.25795229 107.80170148 -67.91021005 105.24460975 -66.5625 102.6875 C-66.14991943 101.90608643 -65.73733887 101.12467285 -65.31225586 100.31958008 C-64.7264978 99.20812622 -64.7264978 99.20812622 -64.12890625 98.07421875 C-63.75781738 97.37603027 -63.38672852 96.6778418 -63.00439453 95.95849609 C-62.11258323 94.21952908 -61.31274456 92.43407846 -60.52734375 90.64453125 C-59 88 -59 88 -56.48828125 86.54296875 C-53.00556589 84.38335718 -52.53341473 82.1388014 -51.1875 78.3125 C-49.12192991 72.72375088 -46.83188787 67.37148454 -44.125 62.0625 C-43.78750732 61.40040527 -43.45001465 60.73831055 -43.10229492 60.05615234 C-42.41368621 58.7102131 -41.72366011 57.36499808 -41.03222656 56.02050781 C-39.66317735 53.34069437 -38.32998442 50.64373083 -36.99560547 47.9465332 C-33.14055035 40.16741389 -29.15713804 32.46438152 -25 24.84228516 C-24.32732024 23.60301723 -23.66074502 22.36041823 -23 21.11474609 C-10.87598028 -1.73026959 -10.87598028 -1.73026959 0 0 Z " fill="#fff" transform="translate(815,13)"/>
<path d="M0 0 C4.60856839 3.12274579 7.16511378 6.41187743 8.58203125 11.890625 C7.8143911 24.98090969 -0.65260336 34.80535577 -9.41796875 43.890625 C-10.52972034 45.17576904 -11.63425745 46.46719996 -12.73046875 47.765625 C-17.22472827 52.93349719 -22.14125375 57.69403331 -27.01318359 62.50170898 C-28.33520736 63.80879852 -29.65026589 65.12292214 -30.96484375 66.4375 C-32.63347383 68.10613008 -34.30820082 69.76868064 -35.98828125 71.42578125 C-36.83132813 72.25980469 -37.674375 73.09382813 -38.54296875 73.953125 C-39.39117188 74.78972656 -40.239375 75.62632812 -41.11328125 76.48828125 C-43.42094447 78.78533502 -43.42094447 78.78533502 -45.09765625 81.19921875 C-45.53335937 81.75738281 -45.9690625 82.31554687 -46.41796875 82.890625 C-47.07796875 82.890625 -47.73796875 82.890625 -48.41796875 82.890625 C-48.41796875 83.550625 -48.41796875 84.210625 -48.41796875 84.890625 C-49.81132742 86.10358892 -51.26632083 87.24599016 -52.7434082 88.35546875 C-58.66390114 92.9803237 -63.92721599 98.12672108 -69.2109375 103.453125 C-70.21083995 104.45422424 -71.21111752 105.45494893 -72.21174622 106.45532227 C-74.29133969 108.53646591 -76.36757607 110.62087881 -78.44116211 112.70800781 C-81.07835378 115.3622202 -83.72211218 118.00977024 -86.36820507 120.65510559 C-88.42845152 122.71562589 -90.48606729 124.77875664 -92.54284096 126.84274292 C-93.5161354 127.81918321 -94.49000465 128.79505094 -95.46449852 129.77029419 C-100.99493564 135.30965282 -106.34778372 140.92663653 -111.41796875 146.890625 C-112.43789343 148.06719454 -113.45860046 149.24308687 -114.48046875 150.41796875 C-119.96821967 156.77596331 -125.42010962 163.13472497 -130.41796875 169.890625 C-130.93101562 170.58414063 -131.4440625 171.27765625 -131.97265625 171.9921875 C-133.84016061 174.59239693 -135.63436433 177.23198157 -137.41796875 179.890625 C-137.86333984 180.54820801 -138.30871094 181.20579102 -138.76757812 181.88330078 C-153.58195374 203.91405817 -168.19100257 233.43444465 -163.04296875 260.890625 C-159.47573391 276.11082698 -152.42254981 289.82590962 -141.41796875 300.890625 C-140.28369026 302.21607402 -139.15822131 303.54912789 -138.04296875 304.890625 C-124.25141257 320.47973233 -105.028774 333.58522238 -86.41796875 342.890625 C-86.41796875 341.570625 -86.41796875 340.250625 -86.41796875 338.890625 C-82.53169423 340.76245447 -78.91535561 342.99707374 -75.24609375 345.2578125 C-71.71136565 347.29858093 -68.08265503 349.09668681 -64.41796875 350.890625 C-47.93173603 358.98561348 -47.93173603 358.98561348 -42.09765625 362.875 C-40.27929178 363.97447619 -38.4661236 364.70352036 -36.48046875 365.453125 C-34.96453125 366.1646875 -34.96453125 366.1646875 -33.41796875 366.890625 C-33.27480225 367.53523682 -33.13163574 368.17984863 -32.98413086 368.84399414 C-32.61609481 371.03985825 -32.61609481 371.03985825 -30.62719727 372.09155273 C-29.85819092 372.41583252 -29.08918457 372.7401123 -28.296875 373.07421875 C-27.01586914 373.63012695 -27.01586914 373.63012695 -25.70898438 374.19726562 C-24.35836914 374.75704102 -24.35836914 374.75704102 -22.98046875 375.328125 C-21.23082947 376.07462039 -19.4821298 376.82332186 -17.734375 377.57421875 C-16.41179687 378.14003662 -16.41179687 378.14003662 -15.0625 378.71728516 C-11.61610067 380.24640214 -8.26378076 381.93525846 -4.90307617 383.64282227 C-2.42349707 384.88784916 0.07538774 386.07717349 2.58984375 387.25 C13.53611422 392.35706046 24.18476148 397.74128994 34.58203125 403.890625 C35.63261719 404.49648438 36.68320312 405.10234375 37.765625 405.7265625 C43.6483299 409.25458905 48.90222214 412.97880053 52.58203125 418.890625 C53.33203125 422.078125 53.33203125 422.078125 52.58203125 424.890625 C44.34166584 435.37836279 31.29428625 436.23325064 18.9621582 437.80883789 C-9.03667687 441.06204711 -9.03667687 441.06204711 -21.41796875 437.890625 C-23.15713535 437.71446759 -24.90017048 437.57468006 -26.64453125 437.4609375 C-27.66699951 437.38955566 -28.68946777 437.31817383 -29.74291992 437.24462891 C-31.37644409 437.13127197 -31.37644409 437.13127197 -33.04296875 437.015625 C-42.86447873 436.2775884 -52.44889681 435.13949086 -62.12207031 433.31152344 C-64.58841232 432.85937822 -67.05980778 432.45447336 -69.53515625 432.0546875 C-117.14618302 424.19223684 -163.01067201 404.83114942 -205.65722656 382.79980469 C-207.40417204 381.89774909 -209.15715363 381.00741478 -210.91015625 380.1171875 C-242.82165519 363.68485198 -272.93353884 342.92137357 -300.41796875 319.890625 C-300.93311035 319.46040039 -301.44825195 319.03017578 -301.97900391 318.58691406 C-313.5216607 308.93778714 -324.57653741 298.91883583 -335.21362305 288.28027344 C-336.97621398 286.51987448 -338.74667914 284.76766118 -340.51757812 283.015625 C-347.28459875 276.28166732 -353.50087848 269.39263601 -359.41796875 261.890625 C-360.9772268 260.05453358 -362.53900808 258.22057536 -364.10546875 256.390625 C-370.94573195 248.19511465 -377.19660221 239.56055355 -383.41796875 230.890625 C-384.14886719 229.87484375 -384.87976563 228.8590625 -385.6328125 227.8125 C-415.19351706 185.06509636 -439.04259933 129.54139373 -430.35546875 76.703125 C-427.42106347 62.99545715 -422.65732581 47.03354419 -410.41796875 38.890625 C-406.56839922 39.01480466 -404.18513219 41.40180111 -401.41796875 43.890625 C-399.93579102 46.46508789 -399.93579102 46.46508789 -398.734375 49.36328125 C-398.28126953 50.42869141 -397.82816406 51.49410156 -397.36132812 52.59179688 C-396.90564453 53.70103516 -396.44996094 54.81027344 -395.98046875 55.953125 C-391.35473764 67.03244389 -386.25155775 77.53759105 -379.54296875 87.515625 C-379.12096191 88.14879639 -378.69895508 88.78196777 -378.26416016 89.43432617 C-375.12901342 94.05103886 -371.694269 98.23043205 -367.81640625 102.25390625 C-366.41796875 103.890625 -366.41796875 103.890625 -366.41796875 105.890625 C-364.93296875 106.385625 -364.93296875 106.385625 -363.41796875 106.890625 C-363.41796875 107.550625 -363.41796875 108.210625 -363.41796875 108.890625 C-362.83490967 109.17204346 -362.25185059 109.45346191 -361.65112305 109.7434082 C-359.57113641 110.81193966 -357.64736425 111.97345791 -355.6875 113.24609375 C-333.22090333 127.59275498 -309.69826045 135.0650231 -282.91796875 135.078125 C-281.63148438 135.09037109 -280.345 135.10261719 -279.01953125 135.11523438 C-262.38590515 135.14033542 -248.82693586 131.66060107 -233.41796875 125.890625 C-231.66536126 125.2476999 -229.91226815 124.60609705 -228.15869141 123.96582031 C-223.72901773 122.34274238 -219.31149998 120.68931098 -214.89868164 119.02099609 C-213.11634442 118.34941913 -211.33214399 117.68276688 -209.54614258 117.02099609 C-192.83393699 110.82678093 -177.70852073 103.36985053 -163.015625 93.28125 C-159.66890945 91.01478635 -156.20842428 89.03091391 -152.66796875 87.078125 C-143.51279983 81.95955329 -135.00758802 75.89407799 -126.41796875 69.890625 C-125.49371094 69.25253906 -124.56945312 68.61445313 -123.6171875 67.95703125 C-119.07640978 64.81220937 -114.60241279 61.57827908 -110.13110352 58.3359375 C-109.35951904 57.77648437 -108.58793457 57.21703125 -107.79296875 56.640625 C-107.01429443 56.07601562 -106.23562012 55.51140625 -105.43334961 54.9296875 C-99.83042061 50.87962805 -94.16190817 46.93962105 -88.44750977 43.04907227 C-83.47335243 39.64962665 -78.59639994 36.13020682 -73.73046875 32.578125 C-17.70189046 -8.12170742 -17.70189046 -8.12170742 0 0 Z " fill="#fff" transform="translate(778.41796875,397.109375)"/>
<path d="M0 0 C1.02641602 0.31630371 2.05283203 0.63260742 3.11035156 0.95849609 C32.85402382 10.13858599 62.17720911 22.17668114 89.5300293 37.06542969 C92.54904587 38.70798144 95.57607965 40.29955857 98.67578125 41.78515625 C117.64213734 50.88431083 135.64146563 62.42931269 152.9375 74.375 C153.62005859 74.84631348 154.30261719 75.31762695 155.00585938 75.80322266 C169.91787091 86.15568053 183.95310892 97.61734326 197.75170898 109.39794922 C200.08406148 111.38874704 202.42407945 113.32341121 204.86328125 115.18359375 C205.56839844 115.78300781 206.27351563 116.38242188 207 117 C207 117.66 207 118.32 207 119 C208.32 119.66 209.64 120.32 211 121 C211 121.66 211 122.32 211 123 C211.55018799 123.2256665 212.10037598 123.45133301 212.66723633 123.68383789 C215.71401627 125.40285314 217.84718246 127.58758379 220.32421875 130.05859375 C220.82991898 130.56238052 221.3356192 131.0661673 221.85664368 131.58522034 C222.92731656 132.65453412 223.99547544 133.72637022 225.0612793 134.80053711 C226.65791263 136.40771718 228.26471347 138.00414858 229.87304688 139.59960938 C236.36054048 146.07824457 242.30537002 152.80278795 248 160 C249.08473584 161.3169461 250.17291123 162.63107214 251.265625 163.94140625 C261.49730186 176.32049281 271.23470532 189.12918226 279.6328125 202.8359375 C280.96762146 205.01994554 280.96762146 205.01994554 282.546875 207.0234375 C284.02791384 209.03796883 285.05879545 210.99122592 286.125 213.25 C287.93199526 216.97154976 289.89338982 220.53927761 292.00610352 224.09570312 C302.34825049 241.697437 310.14568216 261.17698372 315 281 C315.23976563 281.96276855 315.47953125 282.92553711 315.7265625 283.91748047 C322.80811824 313.29196002 323.51914384 344.78446198 309 372 C306.39473994 376.18053358 304.11112322 379.25925119 300 382 C296.5625 381.9375 296.5625 381.9375 293 381 C289.83412006 377.66186768 288.23560995 374.50574683 286.75 370.1875 C280.2023199 352.41810355 270.5197073 335.03636025 257.7734375 320.984375 C256.35776636 319.40032006 255.02145776 317.74545866 253.71484375 316.0703125 C250.94771113 312.74393218 247.80398514 310.46216483 244.1875 308.125 C243.53515381 307.69936768 242.88280762 307.27373535 242.21069336 306.83520508 C214.34335404 289.02710097 178.81692768 280.76292705 146.02734375 287.51171875 C132.08374563 290.87000346 118.6701935 296.57406883 105.3828125 301.875 C101.45078839 303.44061776 97.49986561 304.92594797 93.51733398 306.35717773 C80.97638446 310.88206885 69.30216807 316.94997628 58 324 C56.66371757 324.81147411 55.32637816 325.62120891 53.98828125 326.4296875 C37.56301204 336.3686019 21.60108535 346.81161628 6 358 C4.28398107 359.2284815 2.56770887 360.45660805 0.85131836 361.68457031 C-0.26275677 362.48166941 -1.37652381 363.27919927 -2.48999023 364.07714844 C-7.54892465 367.69545915 -12.64897354 371.25388166 -17.75 374.8125 C-24.29407639 379.3784087 -30.79425312 383.99757738 -37.25 388.6875 C-42.99680331 392.85819983 -48.7768871 396.97235695 -54.625 401 C-55.25180664 401.43272217 -55.87861328 401.86544434 -56.52441406 402.3112793 C-91.09899987 425.98775608 -91.09899987 425.98775608 -109 423 C-113.94203289 420.7870189 -117.75620032 417.02736149 -119.828125 411.984375 C-121.45465195 403.36980636 -116.8661367 396.78938218 -112.29492188 389.84765625 C-109.25839582 385.51499615 -105.69301551 381.7682436 -102 378 C-100.86619295 376.69510045 -99.74078362 375.38284395 -98.625 374.0625 C-93.22678671 367.85707724 -87.23776034 362.19420303 -81.38671875 356.421875 C-79.31418259 354.31881048 -77.35773623 352.17851816 -75.4375 349.9375 C-70.35771277 344.09574468 -70.35771277 344.09574468 -68 342 C-67.34 342 -66.68 342 -66 342 C-65.77795898 341.43023437 -65.55591797 340.86046875 -65.32714844 340.2734375 C-63.59140094 337.30005988 -61.47242933 335.76274511 -58.765625 333.625 C-49.12892477 325.74594127 -40.48580445 316.78780327 -31.71484375 307.97558594 C-29.24219031 305.49150863 -26.76061554 303.01656872 -24.27628708 300.54417419 C-22.32838774 298.60358288 -20.3853757 296.65815355 -18.4437027 294.71133423 C-17.0967169 293.3624135 -15.74578917 292.01743258 -14.39471436 290.67260742 C-9.22759278 285.46662598 -4.46212764 280.07431307 0.11590576 274.34239197 C2.30262581 271.62376178 4.60337086 269.09643602 7 266.5625 C30.32967656 241.07931483 53.60294882 204.36850666 52.38671875 168.46875 C51.19243431 157.75638052 48.12158024 147.50111334 43 138 C42.566875 137.16855469 42.13375 136.33710938 41.6875 135.48046875 C27.31531427 110.51628156 1.00485527 94.41987772 -23 80 C-23.66 80.66 -24.32 81.32 -25 82 C-33.74597322 77.73168594 -42.33763299 73.31486899 -50.75878906 68.43457031 C-54.46580104 66.32068438 -58.2032871 64.40558411 -62.08984375 62.640625 C-62.94795654 62.25060303 -63.80606934 61.86058105 -64.69018555 61.45874023 C-66.35519179 60.7131795 -68.02703425 59.98264081 -69.70629883 59.26977539 C-73.58656732 57.536597 -75.59607524 56.61463354 -77.984375 52.98046875 C-80.85838221 48.73072553 -84.30718438 47.75019693 -89 46 C-90.73035906 45.31419886 -92.45953288 44.62539959 -94.1875 43.93359375 C-95.02152344 43.60343262 -95.85554688 43.27327148 -96.71484375 42.93310547 C-100.52326978 41.37799817 -104.14545098 39.50409656 -107.796875 37.6171875 C-111.09683149 35.95111191 -114.43347253 34.38940862 -117.78637695 32.83374023 C-127.46610816 28.33008965 -136.82913016 23.4659416 -146 18 C-146.65468262 17.61279785 -147.30936523 17.2255957 -147.98388672 16.82666016 C-149.91733903 15.67287952 -151.83573611 14.49779648 -153.75 13.3125 C-154.85859375 12.62800781 -155.9671875 11.94351563 -157.109375 11.23828125 C-161.13069368 8.12447638 -163.67168999 5.0108988 -164.5 -0.0625 C-163.84871733 -3.88878569 -162.81777959 -5.32310939 -160 -8 C-152.77133388 -12.72643554 -144.42711033 -13.81604182 -136 -15 C-134.9625061 -15.14683228 -134.9625061 -15.14683228 -133.90405273 -15.29663086 C-89.89634705 -20.59040037 -41.94258767 -13.40239217 0 0 Z " fill="#fff" transform="translate(169,36)"/>
<path d="M0 0 C2.34317198 0.00854459 4.68391922 -0.02047277 7.02685547 -0.05200195 C20.92340987 -0.11809388 34.4308242 2.00156731 46.96826172 8.32104492 C47.98146484 8.7909082 47.98146484 8.7909082 49.01513672 9.27026367 C54.0181133 11.69448592 60.62416256 14.99615793 62.57080078 20.50488281 C62.95204211 23.22105646 62.46463206 24.23548809 60.84326172 26.44604492 C58.28857422 28.05151367 58.28857422 28.05151367 54.96826172 29.63354492 C54.3560376 29.93123779 53.74381348 30.22893066 53.11303711 30.53564453 C49.51855439 32.26207942 45.88335882 33.86437962 42.20654297 35.40698242 C21.93125826 43.99375477 0.01951378 56.41264038 -12.15673828 75.44604492 C-13.20087891 77.02772461 -13.20087891 77.02772461 -14.26611328 78.64135742 C-31.76254014 105.90668447 -38.51260023 141.22902658 -32.46142578 173.09057617 C-28.89554136 189.08795613 -22.12479862 204.60622498 -15.72314453 219.65698242 C-14.37784949 222.84662032 -13.19974201 226.07528239 -12.04858398 229.33911133 C-7.4773893 242.20183523 -1.27519843 254.6441115 6.87841797 265.61791992 C9.68786437 269.66173542 12.14992705 273.89686384 14.65576172 278.13354492 C23.06037588 292.31346335 23.06037588 292.31346335 32.62060547 305.72729492 C33.84326172 307.44604492 33.84326172 307.44604492 33.84326172 309.44604492 C34.50326172 309.44604492 35.16326172 309.44604492 35.84326172 309.44604492 C37.14794922 311.28979492 37.14794922 311.28979492 38.71826172 313.94604492 C41.83409567 319.00438624 45.23753921 323.72635481 48.84326172 328.44604492 C52.87953715 333.74338504 56.62519228 339.08770269 60.10888672 344.77026367 C62.87232565 349.03367735 65.99992068 353.00609624 69.12060547 357.01245117 C70.84326172 359.44604492 70.84326172 359.44604492 70.84326172 361.44604492 C71.50326172 361.44604492 72.16326172 361.44604492 72.84326172 361.44604492 C74.28857422 363.46557617 74.28857422 363.46557617 75.96826172 366.25854492 C78.4106241 370.22801587 80.95557538 373.99042576 83.78076172 377.69604492 C88.59405001 384.21033995 92.17938111 391.24884515 95.84326172 398.44604492 C96.26736328 399.23237305 96.69146484 400.01870117 97.12841797 400.82885742 C101.78496756 409.57538023 104.09389587 418.49847217 102.84326172 428.44604492 C100.71521017 433.41149854 97.78696266 435.42305434 93.13623047 437.78198242 C85.64458404 439.95162449 80.04719787 437.20491661 73.54638672 433.70776367 C67.96350829 430.45499006 63.19382798 426.2306591 58.44116211 421.88696289 C57.36973703 420.92079776 56.28253321 419.9718674 55.1809082 419.0402832 C47.93359404 412.89391238 41.34664299 406.0575948 34.65576172 399.32104492 C33.38581485 398.0460708 32.11563423 396.77132946 30.84521484 395.49682617 C27.99396974 392.63566965 25.14477748 389.7724931 22.29858398 386.90631104 C20.98021182 385.58346025 19.65307532 384.26935846 18.32495117 382.95629883 C15.98307549 380.58746796 13.71762011 378.16798291 11.46328735 375.7166748 C2.60611894 366.09720177 -6.60722084 356.84300267 -15.86328125 347.60913086 C-18.55211787 344.92570636 -21.23549784 342.236907 -23.91845703 339.54760742 C-25.65120903 337.81551549 -27.38427081 336.08373339 -29.11767578 334.35229492 C-30.30228897 333.16464539 -30.30228897 333.16464539 -31.51083374 331.95300293 C-36.23345293 327.25009991 -41.08351506 322.76786445 -46.15673828 318.44604492 C-46.74013977 317.94531464 -47.32354126 317.44458435 -47.92462158 316.92868042 C-51.13901349 314.17187708 -54.38138422 311.44845029 -57.62841797 308.73022461 C-58.91830497 307.64638984 -60.19877721 306.55136503 -61.47705078 305.45385742 C-69.71322438 298.57561925 -78.80426845 292.81483033 -87.79394531 286.9831543 C-89.65340862 285.77348484 -91.49946505 284.54320533 -93.34033203 283.30541992 C-111.8383398 271.54145659 -138.09178243 262.80645601 -159.97753906 267.5769043 C-178.34210399 271.99452724 -192.34346972 280.74797264 -205.15673828 294.44604492 C-206.31882813 295.59073242 -206.31882813 295.59073242 -207.50439453 296.75854492 C-215.53771983 304.89835023 -222.26861796 313.65152032 -228.15673828 323.44604492 C-229.33986491 325.30300525 -230.52739682 327.15716592 -231.71923828 329.00854492 C-234.96079718 334.09823243 -238.08211951 339.25410626 -241.15673828 344.44604492 C-240.16673828 344.77604492 -239.17673828 345.10604492 -238.15673828 345.44604492 C-240.82340495 350.77937826 -243.49007161 356.11271159 -246.15673828 361.44604492 C-246.81673828 361.44604492 -247.47673828 361.44604492 -248.15673828 361.44604492 C-248.25083984 362.13698242 -248.34494141 362.82791992 -248.44189453 363.53979492 C-249.30912015 367.06556466 -250.8168635 369.78298295 -252.59423828 372.94604492 C-254.71256484 376.73161389 -256.56309823 380.4171021 -258.15673828 384.44604492 C-259.49007161 386.44604492 -260.82340495 388.44604492 -262.15673828 390.44604492 C-262.50736328 391.35354492 -262.85798828 392.26104492 -263.21923828 393.19604492 C-264.15673828 395.44604492 -264.15673828 395.44604492 -267.15673828 397.44604492 C-267.81673828 397.11604492 -268.47673828 396.78604492 -269.15673828 396.44604492 C-269.44162109 397.32260742 -269.72650391 398.19916992 -270.02001953 399.10229492 C-273.00480573 407.88228456 -276.9413421 416.16636261 -281.14501953 424.41870117 C-283.09474582 428.27796332 -284.92579723 432.18900942 -286.75830078 436.10498047 C-291.46969792 446.153733 -296.49986183 455.89820953 -302.15673828 465.44604492 C-303.08292969 467.03932617 -303.08292969 467.03932617 -304.02783203 468.66479492 C-311.63516408 481.27026272 -311.63516408 481.27026272 -318.19970703 482.97729492 C-321.93658713 483.25773621 -323.93153767 482.61494538 -326.90673828 480.38354492 C-331.78703128 474.01205128 -333.93107156 468.89734277 -334.90673828 461.00854492 C-335.02887695 460.04916016 -335.15101563 459.08977539 -335.27685547 458.10131836 C-336.39767449 447.81929516 -336.41876729 437.52643862 -336.40673828 427.19604492 C-336.40605347 426.36058136 -336.40536865 425.5251178 -336.40466309 424.66433716 C-336.36264974 409.08559725 -336.30601786 393.28104242 -333.71923828 377.88354492 C-333.58654541 377.04766846 -333.45385254 376.21179199 -333.31713867 375.35058594 C-332.53337675 370.48688928 -331.68957559 365.63808092 -330.64868164 360.82202148 C-330.14217034 358.375685 -329.7155086 355.9239081 -329.29345703 353.46166992 C-323.1962915 319.81393449 -311.13638727 286.12683976 -296.15673828 255.44604492 C-295.52331867 254.08685978 -294.89325497 252.7261069 -294.26611328 251.36401367 C-290.19823323 242.54623797 -285.84193911 233.93362875 -281.24658203 225.37963867 C-279.44797506 222.02250845 -277.756072 218.6232955 -276.09423828 215.19604492 C-273.45614477 209.86912534 -270.42918229 204.85885063 -267.26611328 199.82885742 C-265.51188756 197.01559913 -263.82091954 194.17617358 -262.15185547 191.31201172 C-248.58476953 168.17718628 -232.43685195 146.36130304 -214.70263672 126.26293945 C-213.56744098 124.92874383 -212.46584339 123.56577251 -211.38427734 122.18774414 C-204.82871726 113.87706624 -197.48162017 106.46670415 -189.98291016 99.01147461 C-187.78590988 96.82519616 -185.5998115 94.62842555 -183.41455078 92.43041992 C-175.96576209 84.97461557 -168.47327747 77.93346022 -160.15673828 71.44604492 C-159.12829495 70.58372093 -158.10487865 69.71530154 -157.09033203 68.83666992 C-141.94769651 55.85049737 -125.27845158 44.63483672 -108.15673828 34.44604492 C-107.34285645 33.9585376 -106.52897461 33.47103027 -105.69042969 32.96875 C-93.53121871 25.71928657 -81.36841738 19.52535367 -68.15673828 14.44604492 C-66.96153564 13.97642334 -66.96153564 13.97642334 -65.7421875 13.49731445 C-44.53565665 5.1857843 -22.86236596 -0.12640365 0 0 Z " fill="#fff" transform="translate(347.15673828125,357.553955078125)"/>
<path d="M0 0 C13.16434036 12.4662314 22.27371695 28.57067658 22.9140625 46.91796875 C23.27822426 75.36216898 15.87652383 96.38366668 -3.671875 117.12890625 C-17.77146722 130.61117832 -34.86943667 138.98219593 -53.421875 144.44140625 C-54.19015625 144.67601562 -54.9584375 144.910625 -55.75 145.15234375 C-61.21765684 146.68595481 -66.77805398 147.10660331 -72.421875 147.44140625 C-73.19015625 147.49554687 -73.9584375 147.5496875 -74.75 147.60546875 C-95.16656257 148.36935374 -117.28794986 140.49690852 -132.609375 127.12890625 C-134.22999739 125.58348074 -135.83448676 124.02094907 -137.421875 122.44140625 C-138.19402344 121.7040625 -138.96617187 120.96671875 -139.76171875 120.20703125 C-144.45161661 115.42894727 -147.78830789 110.43494141 -150.796875 104.50390625 C-151.11865723 103.87218506 -151.44043945 103.24046387 -151.77197266 102.58959961 C-156.52393099 92.67984409 -157.95852923 83.12083616 -157.859375 72.19140625 C-157.85035156 70.99990967 -157.84132813 69.80841309 -157.83203125 68.58081055 C-157.42755488 47.98200898 -149.30904683 31.18701093 -136.421875 15.44140625 C-135.67164063 14.46300781 -135.67164063 14.46300781 -134.90625 13.46484375 C-120.29855476 -4.92070371 -95.52934306 -16.59025748 -72.609375 -19.87109375 C-45.75113277 -22.83837854 -21.26575762 -17.6211545 0 0 Z " fill="#fff" transform="translate(800.421875,582.55859375)"/>
<path d="M0 0 C0.69319336 -0.00040283 1.38638672 -0.00080566 2.10058594 -0.0012207 C12.85588541 0.03486256 22.13615994 0.79767546 32 5.4375 C32.63776367 5.73221191 33.27552734 6.02692383 33.93261719 6.33056641 C42.4908134 10.35438335 49.86081109 15.20345825 57 21.4375 C57.99 22.21287109 57.99 22.21287109 59 23.00390625 C78.11945955 38.38427795 89.72217557 64.09458474 92.625 88.0625 C94.59595995 111.67752016 89.52395484 134.89135873 74.49609375 153.671875 C62.84614694 167.40478238 46.00768116 178.00248421 27.82373047 179.74121094 C24.45971195 179.87454858 21.11649065 179.90554156 17.75 179.875 C16.55850342 179.86597656 15.36700684 179.85695312 14.1394043 179.84765625 C-10.44307159 179.36495678 -31.38166779 167.29384617 -48.44677734 150.09521484 C-65.64843708 131.73632305 -75.65258635 105.49186796 -75.4375 80.5625 C-75.43065186 79.33595703 -75.42380371 78.10941406 -75.41674805 76.84570312 C-75.25602737 67.76829579 -74.27790463 59.96433689 -71 51.4375 C-70.62617187 50.39078125 -70.25234375 49.3440625 -69.8671875 48.265625 C-61.91466747 27.51534096 -47.09315018 13.14744876 -27.1484375 4.1015625 C-18.11326776 0.34247283 -9.71496018 -0.00575258 0 0 Z " fill="#fff" transform="translate(630,20.5625)"/>
<path d="M0 0 C1.4996225 0.05355795 2.9997715 0.09258766 4.5 0.125 C25.29445409 1.87381086 44.07825002 15.42478952 57.3125 30.75 C69.92564875 47.30475773 72.72085866 66.70260659 71 87 C67.63652072 110.39983049 52.59997607 131.88570851 34.02050781 145.89916992 C12.18455151 161.78835103 -16.38970507 170.7220769 -43.47949219 166.625 C-58.83773933 163.68679409 -73.18539337 157.30882343 -85 147 C-85.96679688 146.24074219 -86.93359375 145.48148438 -87.9296875 144.69921875 C-91.17366575 141.99251486 -93.58427244 138.94869267 -96 135.5 C-96.42861328 134.89269043 -96.85722656 134.28538086 -97.29882812 133.65966797 C-106.38422665 120.42554486 -109.35149862 108.09113692 -109.3125 92.1875 C-109.32861328 90.88490234 -109.34472656 89.58230469 -109.36132812 88.24023438 C-109.37305785 64.90980862 -98.14803906 45.54876229 -82.375 29 C-65.96688674 13.06639839 -23.5228298 -11.7614149 0 0 Z " fill="#fff" transform="translate(122,126)"/>
<path d="M0 0 C1.78470703 0.76183594 1.78470703 0.76183594 3.60546875 1.5390625 C27.93414214 12.73502779 45.23866988 33.4014481 55 58 C62.43752563 79.4732323 64.95807967 105.55907042 55.625 126.875 C54.76967324 128.59326771 53.89559773 130.30237446 53 132 C52.61972656 132.76699219 52.23945313 133.53398438 51.84765625 134.32421875 C48.65036842 140.49272354 44.52402357 145.74827497 40 151 C39.47921875 151.61746094 38.9584375 152.23492188 38.421875 152.87109375 C28.52128136 163.69674286 12.53161705 172.29248389 -2.14355469 173.19287109 C-30.75770149 173.84625252 -52.12524681 169.89920077 -74 150 C-75.03833984 149.08347656 -75.03833984 149.08347656 -76.09765625 148.1484375 C-95.24258673 130.25953625 -105.92804703 103.48486707 -107.16015625 77.640625 C-107.68902777 55.47400986 -100.63803111 33.11855302 -85.38891602 16.73071289 C-63.91184532 -5.13027684 -28.33914295 -12.87845712 0 0 Z " fill="#fff" transform="translate(223,659)"/>
<path d="M0 0 C1.91796875 1.09765625 1.91796875 1.09765625 4.73046875 3.09765625 C3.74046875 3.59265625 3.74046875 3.59265625 2.73046875 4.09765625 C1.74046875 3.60265625 0.75046875 3.10765625 -0.26953125 2.59765625 C-4.9856143 0.49067969 -9.36733665 0.52540634 -14.26953125 2.09765625 C-18.47680186 5.0410492 -20.02194146 7.87233942 -21.03515625 12.88671875 C-22.83263085 31.41502704 -6.38864822 52.71863966 3.73046875 67.09765625 C4.67715161 68.45568157 5.6237641 69.81375595 6.5703125 71.171875 C12.25265541 79.29139118 18.05219872 87.32567108 23.86328125 95.35327148 C31.72277439 106.22015162 39.48753285 117.13658583 46.8671875 128.3359375 C49.32948312 131.98550354 51.93599096 135.51814427 54.578125 139.0390625 C60.3509904 147.24260807 65.47468179 155.89565561 70.66796875 164.47265625 C75.35829686 172.24782986 75.35829686 172.24782986 80.16796875 179.94921875 C89.35387591 194.40984603 95.11534089 210.04529413 101.07421875 226.01953125 C102.9387578 231.01553972 104.85829988 235.9832858 106.84106445 240.93334961 C109.7458121 248.20598296 112.2510607 255.38806502 113.73046875 263.09765625 C113.93414063 264.1340625 114.1378125 265.17046875 114.34765625 266.23828125 C120.07149859 299.95406488 111.42992714 336.44971781 92.10546875 364.53515625 C90.99019213 366.06313435 89.8663799 367.58495506 88.73046875 369.09765625 C87.98796875 370.10828125 87.24546875 371.11890625 86.48046875 372.16015625 C70.5032452 390.55973305 45.34812368 400.99306182 23.43310547 410.24267578 C21.53373022 411.0846639 21.53373022 411.0846639 19.73046875 413.09765625 C18.97704358 415.42281124 18.97704358 415.42281124 19.73046875 418.09765625 C24.44520809 424.06751392 32.01488771 426.98797833 38.73046875 430.09765625 C35.73046875 431.09765625 35.73046875 431.09765625 32.33203125 429.65625 C31.0008058 428.96001909 29.67544766 428.25248069 28.35546875 427.53515625 C27.36546875 427.03145508 27.36546875 427.03145508 26.35546875 426.51757812 C21.709893 424.03284289 18.73548546 421.45055425 15.73046875 417.09765625 C15.93765042 413.71368895 16.65309184 412.05532461 19.20703125 409.78515625 C23.04215701 407.17400679 27.07205483 405.54734454 31.41796875 403.97265625 C44.86717114 399.00776378 58.4808565 392.01282302 69.73046875 383.09765625 C70.62636719 382.41316406 71.52226562 381.72867187 72.4453125 381.0234375 C94.33074994 363.82130354 105.82623967 339.09764221 110.73046875 312.09765625 C110.95476562 310.86917969 111.1790625 309.64070313 111.41015625 308.375 C113.47840656 295.12969836 113.53311659 281.79516248 111.60546875 268.53515625 C111.51305908 267.85356445 111.42064941 267.17197266 111.32543945 266.46972656 C108.9097818 251.91225473 102.59253262 237.71214236 97.30859375 224.01098633 C96.35562773 221.53556923 95.4138888 219.05607041 94.47265625 216.57617188 C89.02883643 202.34150837 83.27903908 188.20030815 74.79296875 175.47265625 C73.75372439 173.87205627 72.71597933 172.27048189 71.6796875 170.66796875 C71.17872559 169.89743164 70.67776367 169.12689453 70.16162109 168.33300781 C68.06108104 165.05212335 66.08146993 161.7044615 64.10546875 158.34765625 C58.31785685 148.58730349 52.13049398 139.02881517 45.18530273 130.04785156 C43.69532225 128.0505426 42.32216718 126.00628368 40.95703125 123.921875 C37.88099667 119.28137074 34.64184198 114.77805651 31.35546875 110.28515625 C27.68739905 105.2444685 24.07566439 100.19493196 20.66796875 94.97265625 C17.57933829 90.2584308 14.26377096 85.76914537 10.85546875 81.28515625 C-27.04828842 31.24364573 -27.04828842 31.24364573 -24.26953125 11.09765625 C-22.14578848 6.85017072 -19.53480914 3.29063254 -16.08203125 0.03515625 C-10.89697907 -1.69319448 -5.14199363 -2.04440711 0 0 Z " fill="#fff" transform="translate(412.26953125,57.90234375)"/>
<path d="M0 0 C0.5775 0.226875 1.155 0.45375 1.75 0.6875 C1.193125 0.914375 0.63625 1.14125 0.0625 1.375 C-5.2268508 4.37706397 -8.44146313 9.04923539 -11.25 14.3125 C-11.5910376 14.94913574 -11.9320752 15.58577148 -12.28344727 16.24169922 C-17.08717073 25.72652687 -19.26857131 36.30064223 -21.25 46.6875 C-21.58 46.6875 -21.91 46.6875 -22.25 46.6875 C-23.44357573 32.0661973 -16.53826531 15.65367376 -7.7421875 4.2734375 C-3.2912683 -0.4571206 -3.2912683 -0.4571206 0 0 Z " fill="#fff" transform="translate(370.25,436.3125)"/>
<path d="M0 0 C0 0.33 0 0.66 0 1 C-0.94359375 1.23074219 -1.8871875 1.46148438 -2.859375 1.69921875 C-30.9461442 8.75401489 -54.84307466 23.97552126 -69.91308594 49.10058594 C-79.63679195 66.09304613 -81.62474111 83.80550754 -82 103 C-82.33 103 -82.66 103 -83 103 C-83.80729183 75.67317153 -79.51900402 55.40479814 -62 34 C-61.24976563 33.02160156 -61.24976563 33.02160156 -60.484375 32.0234375 C-49.07038286 17.65755084 -30.85269305 7.63738691 -13.625 2.125 C-12.95895752 1.90956543 -12.29291504 1.69413086 -11.60668945 1.47216797 C-7.63199235 0.2663217 -4.1457654 -0.21819818 0 0 Z " fill="#fff" transform="translate(726,564)"/>
<path d="M0 0 C0.99 0.495 0.99 0.495 2 1 C1.48127823 1.51428055 0.96255646 2.0285611 0.42811584 2.5584259 C-4.50414664 7.45030338 -9.43135818 12.3472191 -14.35320187 17.24957752 C-16.88260885 19.76862961 -19.41380549 22.28582238 -21.94946289 24.79858398 C-24.40494004 27.23203216 -26.85523098 29.67060036 -29.30227852 32.11252403 C-30.67285383 33.47770654 -32.04850087 34.83779138 -33.42430115 36.19770813 C-41.17564955 43.94769532 -48.35809642 52.17443599 -54.4375 61.3125 C-55.07558594 62.25738281 -55.71367188 63.20226562 -56.37109375 64.17578125 C-59.262052 69.1881621 -60.51678811 73.35676632 -59.61328125 79.0390625 C-58.18844234 83.59491685 -54.90028665 86.3998089 -51 89 C-47.79620876 89.24246783 -47.79620876 89.24246783 -44.3125 89.125 C-42.54326172 89.09792969 -42.54326172 89.09792969 -40.73828125 89.0703125 C-39.83464844 89.04710937 -38.93101563 89.02390625 -38 89 C-40.63827703 91.63827703 -42.00813914 91.35901928 -45.6875 91.4375 C-50.72694617 91.35894748 -53.71665759 90.68397695 -57.59765625 87.484375 C-61.2830434 83.5834081 -63.04713478 80.49273781 -63.4453125 75.109375 C-61.83074185 63.83570627 -52.64219177 53.79786605 -45 46 C-43.86619295 44.69510045 -42.74078362 43.38284395 -41.625 42.0625 C-36.22678671 35.85707724 -30.23776034 30.19420303 -24.38671875 24.421875 C-22.31418259 22.31881048 -20.35773623 20.17851816 -18.4375 17.9375 C-13.35771277 12.09574468 -13.35771277 12.09574468 -11 10 C-10.34 10 -9.68 10 -9 10 C-8.61714844 9.11054688 -8.61714844 9.11054688 -8.2265625 8.203125 C-6.88183502 5.78775462 -5.50785633 4.48788294 -3.375 2.75 C-2.74335937 2.22921875 -2.11171875 1.7084375 -1.4609375 1.171875 C-0.73777344 0.59179688 -0.73777344 0.59179688 0 0 Z " fill="#fff" transform="translate(112,368)"/>
<path d="M0 0 C3.88627452 1.87182947 7.50261314 4.10644874 11.171875 6.3671875 C14.7066031 8.40795593 18.33531372 10.20606181 22 12 C38.30634665 20.00666171 38.30634665 20.00666171 44.31640625 23.96875 C47.07737996 25.65992647 49.99398339 26.81011843 53 28 C52.67 29.32 52.34 30.64 52 32 C45.65051864 30.10216385 39.98971502 27.61927973 34.1875 24.4375 C32.52575496 23.54368259 30.86295775 22.65181912 29.19921875 21.76171875 C28.34763184 21.30587402 27.49604492 20.8500293 26.61865234 20.38037109 C22.28322169 18.09503407 17.89210193 15.92385187 13.5 13.75 C6.57728982 10.31630909 -0.26829646 6.79816301 -7 3 C-6.67 2.34 -6.34 1.68 -6 1 C-4.02 1.99 -2.04 2.98 0 4 C0 2.68 0 1.36 0 0 Z " fill="#fff" transform="translate(692,736)"/>
<path d="M0 0 C2.0562499 2.0562499 2.61479431 3.35949368 3.6875 6 C5.13733095 9.05616977 5.13733095 9.05616977 7.81640625 10.96875 C9.94813529 11.59437346 9.94813529 11.59437346 13 12 C12.67 12.66 12.34 13.32 12 14 C5.69221485 13.63608932 5.69221485 13.63608932 2.6875 10.875 C0.74101941 7.55877381 -0.12201843 4.73142168 -1 1 C-0.67 0.67 -0.34 0.34 0 0 Z " fill="#fff" transform="translate(457,404)"/>
<path d="M0 0 C3.22637772 1.33760243 4.56070648 2.38191834 6 5.5625 C6.48533203 6.62210937 6.48533203 6.62210937 6.98046875 7.703125 C7.31691406 8.46109375 7.65335937 9.2190625 8 10 C8.58201172 11.19882812 8.58201172 11.19882812 9.17578125 12.421875 C9.55089844 13.21078125 9.92601562 13.9996875 10.3125 14.8125 C10.65925781 15.54082031 11.00601562 16.26914062 11.36328125 17.01953125 C12 19 12 19 11 22 C8.28955076 18.11019498 5.92382082 14.56228611 4.9375 9.875 C3.90807232 5.62003225 2.58376822 3.44502429 0 0 Z " fill="#fff" transform="translate(372,438)"/>
<path d="M0 0 C0.7425 0.763125 1.485 1.52625 2.25 2.3125 C6.51081078 6.74619624 6.51081078 6.74619624 12.234375 8.29296875 C13.39453125 8.25816406 14.5546875 8.22335937 15.75 8.1875 C16.92046875 8.16042969 18.0909375 8.13335937 19.296875 8.10546875 C20.63492188 8.05326172 20.63492188 8.05326172 22 8 C19.36172297 10.63827703 17.99186086 10.35901928 14.3125 10.4375 C8.19989233 10.33464362 5.32052642 9.32052642 1 5 C0.0625 2.1875 0.0625 2.1875 0 0 Z " fill="#fff" transform="translate(52,449)"/>
<path d="M0 0 C0.33 0 0.66 0 1 0 C1.33 7.92 1.66 15.84 2 24 C-1 21 -1 21 -1.2487793 18.73168945 C-1.19117432 17.86761475 -1.13356934 17.00354004 -1.07421875 16.11328125 C-1.01943359 15.17548828 -0.96464844 14.23769531 -0.90820312 13.27148438 C-0.79895508 11.80678711 -0.79895508 11.80678711 -0.6875 10.3125 C-0.5956543 8.83040039 -0.5956543 8.83040039 -0.50195312 7.31835938 C-0.34867116 4.87763881 -0.18082846 2.43880911 0 0 Z " fill="#fff" transform="translate(644,646)"/>
<path d="M0 0 C0.33 0 0.66 0 1 0 C2.03026944 6.69675136 2.10152799 13.2314676 2 20 C1.67 20 1.34 20 1 20 C0.77213542 18.01432292 0.54427083 16.02864583 0.31640625 14.04296875 C0.02829265 11.80603607 0.02829265 11.80603607 -1 9 C-0.87890625 6.73828125 -0.87890625 6.73828125 -0.5625 4.3125 C-0.46066406 3.50425781 -0.35882813 2.69601562 -0.25390625 1.86328125 C-0.17011719 1.24839844 -0.08632812 0.63351562 0 0 Z " fill="#fff" transform="translate(12,794)"/>
<path d="M0 0 C0.99 0.495 0.99 0.495 2 1 C1.48127823 1.51428055 0.96255646 2.0285611 0.42811584 2.5584259 C-4.50414664 7.45030338 -9.43135818 12.3472191 -14.35320187 17.24957752 C-16.88260885 19.76862961 -19.41380549 22.28582238 -21.94946289 24.79858398 C-24.40494004 27.23203216 -26.85523098 29.67060036 -29.30227852 32.11252403 C-30.67285383 33.47770654 -32.04850087 34.83779138 -33.42430115 36.19770813 C-41.17564955 43.94769532 -48.35809642 52.17443599 -54.4375 61.3125 C-55.07558594 62.25738281 -55.71367188 63.20226562 -56.37109375 64.17578125 C-59.262052 69.1881621 -60.51678811 73.35676632 -59.61328125 79.0390625 C-58.18844234 83.59491685 -54.90028665 86.3998089 -51 89 C-47.79620876 89.24246783 -47.79620876 89.24246783 -44.3125 89.125 C-42.54326172 89.09792969 -42.54326172 89.09792969 -40.73828125 89.0703125 C-39.83464844 89.04710937 -38.93101563 89.02390625 -38 89 C-40.63827703 91.63827703 -42.00813914 91.35901928 -45.6875 91.4375 C-50.72694617 91.35894748 -53.71665759 90.68397695 -57.59765625 87.484375 C-61.2830434 83.5834081 -63.04713478 80.49273781 -63.4453125 75.109375 C-61.83074185 63.83570627 -52.64219177 53.79786605 -45 46 C-43.86619295 44.69510045 -42.74078362 43.38284395 -41.625 42.0625 C-36.22678671 35.85707724 -30.23776034 30.19420303 -24.38671875 24.421875 C-22.31418259 22.31881048 -20.35773623 20.17851816 -18.4375 17.9375 C-13.35771277 12.09574468 -13.35771277 12.09574468 -11 10 C-10.34 10 -9.68 10 -9 10 C-8.61714844 9.11054688 -8.61714844 9.11054688 -8.2265625 8.203125 C-6.88183502 5.78775462 -5.50785633 4.48788294 -3.375 2.75 C-2.74335937 2.22921875 -2.11171875 1.7084375 -1.4609375 1.171875 C-0.73777344 0.59179688 -0.73777344 0.59179688 0 0 Z " fill="#fff" transform="translate(112,368)"/>
<path d="M0 0 C1.35326235 4.05978704 0.14061838 5.30941151 -1.6875 9.125 C-8.38367023 24.01642486 -9.68349807 38.81092605 -10 55 C-10.33 55 -10.66 55 -11 55 C-11.61676985 34.12234049 -10.1290779 18.46565044 0 0 Z " fill="#fff" transform="translate(654,612)"/>
<path d="M0 0 C-3.35523492 1.92660691 -6.52480095 2.55566269 -10.3125 3.25 C-16.06807969 4.53982022 -20.51428155 6.03769249 -24 11 C-25.08353746 13.95548377 -25.08353746 13.95548377 -24 17 C-20.3972987 22.92832565 -14.81812852 26.47033536 -9 30 C-9.66 30.33 -10.32 30.66 -11 31 C-12.92611169 29.80677986 -14.84053513 28.59468211 -16.75 27.375 C-18.35101562 26.36566406 -18.35101562 26.36566406 -19.984375 25.3359375 C-24.05596355 22.18203859 -26.65993233 19.08291445 -27.5 13.9375 C-26.84871733 10.11121431 -25.81777959 8.67689061 -23 6 C-16.1001878 1.49876812 -8.19890347 -0.42045659 0 0 Z " fill="#fff" transform="translate(32,22)"/>
<path d="M0 0 C0.33 0 0.66 0 1 0 C1.01417969 1.24652344 1.02835938 2.49304688 1.04296875 3.77734375 C1.41846813 19.88085732 4.68475736 33.58741556 12 48 C9 47 9 47 7.28125 44.26171875 C-0.31064445 29.02798317 -1.3549803 16.88623433 0 0 Z " fill="#fff" transform="translate(644,646)"/>
<path d="M0 0 C0.33 0 0.66 0 1 0 C1.02763357 1.35404497 1.04667422 2.70826555 1.0625 4.0625 C1.07410156 4.81660156 1.08570313 5.57070313 1.09765625 6.34765625 C1 9 1 9 0.53125 12.21875 C-0.08796272 16.6260876 -0.34415925 20.99551849 -0.5625 25.4375 C-0.60568359 26.26443359 -0.64886719 27.09136719 -0.69335938 27.94335938 C-0.79838033 29.96209549 -0.89958559 31.98102951 -1 34 C-1.33 34 -1.66 34 -2 34 C-3.0681297 22.0446688 -3.08517685 11.66092267 0 0 Z " fill="#fff" transform="translate(15,731)"/>
<path d="M0 0 C2.36919331 3.55378997 3.8780286 7.18834466 5.5 11.125 C5.81461182 11.88675537 6.12922363 12.64851074 6.45336914 13.43334961 C8.53151411 18.57362009 10.10190616 23.51164873 11 29 C8.06600968 25.59554476 6.84858461 22.11267729 5.4375 17.875 C3.95767373 12.98511679 3.95767373 12.98511679 1 9 C0.5859375 6.8359375 0.5859375 6.8359375 0.375 4.375 C0.30023438 3.55773437 0.22546875 2.74046875 0.1484375 1.8984375 C0.09945313 1.27195312 0.05046875 0.64546875 0 0 Z " fill="#fff" transform="translate(324,561)"/>
<path d="M0 0 C2.0562499 2.0562499 2.61479431 3.35949368 3.6875 6 C5.13733095 9.05616977 5.13733095 9.05616977 7.81640625 10.96875 C9.94813529 11.59437346 9.94813529 11.59437346 13 12 C12.67 12.66 12.34 13.32 12 14 C5.69221485 13.63608932 5.69221485 13.63608932 2.6875 10.875 C0.74101941 7.55877381 -0.12201843 4.73142168 -1 1 C-0.67 0.67 -0.34 0.34 0 0 Z " fill="#fff" transform="translate(457,404)"/>
<path d="M0 0 C3.22637772 1.33760243 4.56070648 2.38191834 6 5.5625 C6.48533203 6.62210937 6.48533203 6.62210937 6.98046875 7.703125 C7.31691406 8.46109375 7.65335937 9.2190625 8 10 C8.58201172 11.19882812 8.58201172 11.19882812 9.17578125 12.421875 C9.55089844 13.21078125 9.92601562 13.9996875 10.3125 14.8125 C10.65925781 15.54082031 11.00601562 16.26914062 11.36328125 17.01953125 C12 19 12 19 11 22 C8.28955076 18.11019498 5.92382082 14.56228611 4.9375 9.875 C3.90807232 5.62003225 2.58376822 3.44502429 0 0 Z " fill="#fff" transform="translate(372,438)"/>
<path d="M0 0 C0.7425 0.763125 1.485 1.52625 2.25 2.3125 C6.51081078 6.74619624 6.51081078 6.74619624 12.234375 8.29296875 C13.39453125 8.25816406 14.5546875 8.22335937 15.75 8.1875 C16.92046875 8.16042969 18.0909375 8.13335937 19.296875 8.10546875 C20.63492188 8.05326172 20.63492188 8.05326172 22 8 C19.36172297 10.63827703 17.99186086 10.35901928 14.3125 10.4375 C8.19989233 10.33464362 5.32052642 9.32052642 1 5 C0.0625 2.1875 0.0625 2.1875 0 0 Z " fill="#fff" transform="translate(52,449)"/>
<path d="M0 0 C0.33 0 0.66 0 1 0 C1.33 7.92 1.66 15.84 2 24 C-1 21 -1 21 -1.2487793 18.73168945 C-1.19117432 17.86761475 -1.13356934 17.00354004 -1.07421875 16.11328125 C-1.01943359 15.17548828 -0.96464844 14.23769531 -0.90820312 13.27148438 C-0.79895508 11.80678711 -0.79895508 11.80678711 -0.6875 10.3125 C-0.5956543 8.83040039 -0.5956543 8.83040039 -0.50195312 7.31835938 C-0.34867116 4.87763881 -0.18082846 2.43880911 0 0 Z " fill="#fff" transform="translate(644,646)"/>
<path d="M0 0 C0.33 0 0.66 0 1 0 C2.03026944 6.69675136 2.10152799 13.2314676 2 20 C1.67 20 1.34 20 1 20 C0.77213542 18.01432292 0.54427083 16.02864583 0.31640625 14.04296875 C0.02829265 11.80603607 0.02829265 11.80603607 -1 9 C-0.87890625 6.73828125 -0.87890625 6.73828125 -0.5625 4.3125 C-0.46066406 3.50425781 -0.35882813 2.69601562 -0.25390625 1.86328125 C-0.17011719 1.24839844 -0.08632812 0.63351562 0 0 Z " fill="#fff" transform="translate(12,794)"/>
<path d="M0 0 C0.99 0.33 1.98 0.66 3 1 C3.33 4.3 3.66 7.6 4 11 C3.34 10.67 2.68 10.34 2 10 C1.3671875 7.71484375 1.3671875 7.71484375 0.875 4.9375 C0.70742188 4.01839844 0.53984375 3.09929688 0.3671875 2.15234375 C0.24601563 1.44207031 0.12484375 0.73179687 0 0 Z " fill="#fff" transform="translate(644,669)"/>
</svg>
