<?xml version="1.0" encoding="UTF-8"?>
<svg version="1.1" xmlns="http://www.w3.org/2000/svg" width="626" height="626">
<path d="M0 0 C206.58 0 413.16 0 626 0 C626 206.58 626 413.16 626 626 C419.42 626 212.84 626 0 626 C0 419.42 0 212.84 0 0 Z " fill="#EEEDEB" transform="translate(0,0)"/>
<path d="M0 0 C1.87686001 -0.00678394 3.75371335 -0.01569141 5.6305542 -0.02655029 C10.70501925 -0.04925785 15.77897349 -0.04054263 20.85344696 -0.02465487 C26.17656276 -0.01195152 31.4996363 -0.02374827 36.82275391 -0.03158569 C45.76017061 -0.04066935 54.69738038 -0.02872801 63.63476562 -0.00488281 C73.95163622 0.0223259 84.26801267 0.01351084 94.58487129 -0.01401484 C103.45993324 -0.03674147 112.33484686 -0.03988861 121.20992851 -0.02682149 C126.50309213 -0.01904654 131.79602386 -0.01793152 137.08917236 -0.03450394 C142.06675472 -0.04900117 147.04370311 -0.03883117 152.02121735 -0.01003265 C153.84242961 -0.00344986 155.66369569 -0.0052712 157.48488617 -0.01634598 C167.03709647 -0.06905586 175.25886883 -0.03721375 183.3984375 5.64697266 C183.97298676 6.02681494 184.54753601 6.40665722 185.13949585 6.79800987 C191.10128385 11.20440631 194.42652018 17.65826754 196.3984375 24.64697266 C196.58184241 27.33560949 196.67091888 29.9177926 196.65570641 32.60378647 C196.65921248 33.39111896 196.66271855 34.17845145 196.66633087 34.9896425 C196.67564622 37.63197968 196.6707212 40.27409652 196.66586304 42.91644287 C196.66959923 44.82840347 196.67420063 46.74036255 196.67959368 48.65231919 C196.69184296 53.90980469 196.69156094 59.16722664 196.68920493 64.42472315 C196.68879725 70.09358358 196.69983126 75.76242351 196.70932007 81.43127441 C196.7259417 92.53910145 196.73143014 103.64690726 196.73254482 114.75474569 C196.73349476 123.78293423 196.73760235 132.81111575 196.74394608 141.83930206 C196.75869474 163.2648359 196.77099546 184.69036283 196.76994896 206.11590195 C196.76990222 207.14370027 196.76990222 207.14370027 196.76985454 208.19226219 C196.76968833 211.66511647 196.76949025 215.13797075 196.76928513 218.61082503 C196.76924524 219.30054302 196.76920535 219.99026102 196.76916425 220.70087956 C196.76908337 222.09565774 196.76899978 223.49043592 196.76891346 224.88521411 C196.76768808 246.58349636 196.78269881 268.2817161 196.81005859 289.97998047 C196.84078671 314.35960284 196.8579653 338.7391737 196.85613215 363.11881852 C196.85546787 376.02662638 196.86097691 388.93436374 196.88248825 401.84215546 C196.90068582 412.83207534 196.90505906 423.82189277 196.8914694 434.81182119 C196.88493257 440.4191113 196.88484854 446.02620477 196.9021759 451.63347626 C196.91787979 456.76818748 196.91507023 461.90254569 196.89760764 467.03724816 C196.89453185 468.89322526 196.89819189 470.74922852 196.90932779 472.60517475 C196.98291749 485.74156388 196.00148542 495.76010897 186.62109375 505.66650391 C179.64951221 511.87844036 172.99484315 513.79650885 163.84750366 513.79414368 C163.08343378 513.79782036 162.31936389 513.80149705 161.53214037 513.80528516 C158.96982505 513.81630505 156.4075503 513.82016297 153.84521484 513.82397461 C152.00865551 513.8302406 150.17209745 513.83688752 148.33554077 513.84388733 C142.30182781 513.86491605 136.26811463 513.8752894 130.234375 513.88525391 C128.15561535 513.88930207 126.07685584 513.89341901 123.99809647 513.89760399 C114.23026727 513.91665395 104.46244562 513.93088475 94.69460142 513.93921596 C83.42813182 513.94898455 72.16185889 513.9752951 60.89545858 514.01571685 C52.18191627 514.04590392 43.46843025 514.06068734 34.75483668 514.06399697 C29.55323917 514.06634471 24.35185182 514.07526922 19.15031052 514.10045815 C14.25337555 514.1237888 9.35678836 514.127952 4.45981216 514.11769676 C2.66760855 514.11720249 0.87538753 514.12349081 -0.91676331 514.13725281 C-12.18386865 514.21889606 -21.64001741 513.78155362 -30.8515625 506.58447266 C-38.65517893 498.86918621 -41.22538729 491.27291304 -41.39178427 480.55012069 C-41.39966771 477.89515953 -41.37842268 475.24128283 -41.35673523 472.58641052 C-41.36293837 470.64950268 -41.37175951 468.71260176 -41.38296062 466.77571636 C-41.40601237 461.47231149 -41.39178504 456.16957009 -41.37125146 450.86617911 C-41.35559603 445.13943788 -41.37455159 439.41279544 -41.38905334 433.68606567 C-41.41186603 422.47523584 -41.40241028 411.26465551 -41.38155248 400.05383068 C-41.36526209 390.94231773 -41.3610705 381.83087283 -41.36551857 372.719347 C-41.36614925 371.4220802 -41.36677992 370.12481339 -41.36742971 368.78823547 C-41.36877577 366.15279664 -41.37015535 363.51735783 -41.37156806 360.88191903 C-41.3831617 336.88020535 -41.3616471 312.87862425 -41.32569523 288.87694049 C-41.29308651 266.97642157 -41.28855287 245.07607032 -41.30834961 223.17553711 C-41.31339267 217.56648233 -41.31839731 211.95742754 -41.32309246 206.34837246 C-41.32367064 205.65778316 -41.32424882 204.96719385 -41.32484453 204.2556776 C-41.33971558 185.94275949 -41.33133299 167.62985572 -41.31602699 149.31693989 C-41.31386406 146.69155412 -41.31171497 144.06616834 -41.30957985 141.44078255 C-41.30851348 140.14906682 -41.30744712 138.85735109 -41.30634844 137.52649246 C-41.29988029 128.42595974 -41.30464335 119.32547242 -41.31360435 110.22494316 C-41.32414218 99.13445897 -41.31663168 88.04415929 -41.28614857 76.95370918 C-41.2710252 71.29573012 -41.2638498 65.63804227 -41.27833939 59.98005486 C-41.29136796 54.79918877 -41.28125253 49.61889924 -41.25278065 44.43809975 C-41.2465086 42.56545903 -41.24862623 40.69276716 -41.26005109 38.82015079 C-41.32700751 26.86619248 -40.62688394 18.18460763 -32.4140625 8.83447266 C-22.62534996 0.02361247 -12.52411468 -0.07615999 0 0 Z " fill="#FEFEFE" transform="translate(236.6015625,55.35302734375)"/>
<path d="M0 0 C0.76507317 -0.00297112 1.53014634 -0.00594224 2.31840354 -0.0090034 C4.8721771 -0.0176482 7.42590355 -0.01919506 9.97969055 -0.02069092 C11.81492207 -0.0253221 13.65015263 -0.03034716 15.48538208 -0.03573608 C20.46494504 -0.04883357 25.44449454 -0.05529991 30.42407203 -0.05974674 C33.5381976 -0.06268187 36.65231952 -0.06678752 39.76644325 -0.07125092 C49.51878583 -0.08491913 59.27112004 -0.09458898 69.02347153 -0.09845281 C80.26440509 -0.10293142 91.50521692 -0.12047305 102.74611348 -0.1494534 C111.44612458 -0.17110107 120.14610151 -0.18115874 128.84613925 -0.18249393 C134.0370784 -0.18353978 139.22790302 -0.18940076 144.41881371 -0.20731354 C149.30506666 -0.22384751 154.19111963 -0.22592394 159.07739067 -0.21717453 C160.86433194 -0.21640699 162.65128421 -0.22070926 164.43819809 -0.23063278 C179.91724163 -0.31150941 193.61008915 1.48689103 205.51997375 12.28887939 C214.41173164 22.00015413 217.70615348 32.81142681 217.55586243 45.73077393 C217.55630051 46.73685196 217.55673859 47.74292999 217.55718994 48.77949524 C217.5551179 52.06928653 217.53186194 55.35855332 217.508255 58.64825439 C217.50265342 60.94324465 217.49838598 63.23823851 217.49539185 65.53323364 C217.48398745 71.54691633 217.4545583 77.5603785 217.42127991 83.57397461 C217.39048381 89.72110004 217.37686617 95.86826141 217.36177063 102.01544189 C217.32968429 114.05720496 217.2785415 126.09880502 217.21528625 138.14044189 C217.87528625 138.14044189 218.53528625 138.14044189 219.21528625 138.14044189 C219.21528625 159.26044189 219.21528625 180.38044189 219.21528625 202.14044189 C218.55528625 202.14044189 217.89528625 202.14044189 217.21528625 202.14044189 C217.21718486 202.77702406 217.21908346 203.41360622 217.22103959 204.06947875 C217.33299982 241.82257861 217.41875429 279.57565387 217.4706129 317.32888584 C217.47686622 321.86486704 217.48333785 326.40084791 217.48994446 330.93682861 C217.49125601 331.83983716 217.49256756 332.74284571 217.49391886 333.67321816 C217.51565838 348.28274681 217.55507187 362.89217679 217.60105024 377.50164697 C217.64785537 392.49922334 217.67559022 407.49674813 217.68572873 422.49439454 C217.69257949 431.74417225 217.71419433 440.99367105 217.75486859 450.24336287 C217.78135707 456.59156341 217.78927347 462.93962036 217.78279314 469.28787211 C217.77959969 472.94718136 217.78439494 476.60600423 217.81131363 480.26522636 C217.8403514 484.24177323 217.83017628 488.21769497 217.81655884 492.19433594 C217.83112305 493.33833917 217.84568725 494.48234241 217.8606928 495.66101241 C217.74568796 508.12999979 212.85991226 518.00306834 204.477005 527.00762939 C196.24163426 534.95314237 185.70067688 538.29043943 174.48126221 538.28761292 C173.69748013 538.2912896 172.91369805 538.29496629 172.10616499 538.29875439 C169.47708614 538.30977643 166.84804684 538.3136326 164.21894836 538.31744385 C162.33475113 538.32370972 160.45055513 538.33035663 158.56636047 538.33735657 C152.37512572 538.35838828 146.18389075 538.36875955 139.99263 538.37872314 C137.85941111 538.38277132 135.72619234 538.38688826 133.59297371 538.39107323 C123.56831918 538.41012457 113.54367201 538.42435456 103.51900285 538.4326852 C91.95823284 538.44245154 80.39765461 538.46875563 68.83695215 538.50918609 C59.89494604 538.53938183 50.95299479 538.55415744 42.0109387 538.55746621 C36.67349555 538.55981314 31.33625727 538.56872695 25.99886894 538.59392738 C20.9730717 538.61727294 15.9476133 538.62141526 10.92177582 538.611166 C9.08322838 538.61067207 7.2446639 538.61695007 5.40616798 538.63072205 C-8.40412581 538.7283343 -19.72415964 537.25651295 -30.78471375 528.14044189 C-33.3301513 525.62020669 -35.58856483 522.96733854 -37.78471375 520.14044189 C-38.52721375 519.21231689 -39.26971375 518.28419189 -40.03471375 517.32794189 C-44.60124918 509.01032377 -45.22080293 500.27615881 -45.14547729 490.9599762 C-45.14804057 489.78268155 -45.15060384 488.6053869 -45.15324479 487.39241666 C-45.15730394 484.15628215 -45.14803551 480.92051605 -45.13291061 477.684425 C-45.11987275 474.18288224 -45.12434515 470.68135454 -45.12661743 467.17979431 C-45.1281853 461.12361466 -45.11882722 455.06753248 -45.10190392 449.01137733 C-45.07745217 440.25536815 -45.06970235 431.49940577 -45.06593994 422.74336614 C-45.05938511 408.53495913 -45.03945032 394.32660398 -45.0110321 380.1182251 C-44.98346641 366.32167825 -44.96224513 352.52514552 -44.94950867 338.72857666 C-44.9487205 337.87718588 -44.94793233 337.02579511 -44.94712027 336.14860461 C-44.94320497 331.8771373 -44.93941389 327.60566989 -44.93568456 323.33420241 C-44.90461883 287.93624527 -44.85180952 252.53834838 -44.78471375 217.14044189 C-45.44471375 217.14044189 -46.10471375 217.14044189 -46.78471375 217.14044189 C-46.78471375 203.61044189 -46.78471375 190.08044189 -46.78471375 176.14044189 C-46.12471375 176.14044189 -45.46471375 176.14044189 -44.78471375 176.14044189 C-44.78471375 172.51044189 -44.78471375 168.88044189 -44.78471375 165.14044189 C-45.44471375 165.14044189 -46.10471375 165.14044189 -46.78471375 165.14044189 C-46.78471375 151.61044189 -46.78471375 138.08044189 -46.78471375 124.14044189 C-46.12471375 124.14044189 -45.46471375 124.14044189 -44.78471375 124.14044189 C-44.78471375 118.20044189 -44.78471375 112.26044189 -44.78471375 106.14044189 C-45.44471375 106.14044189 -46.10471375 106.14044189 -46.78471375 106.14044189 C-46.78471375 99.21044189 -46.78471375 92.28044189 -46.78471375 85.14044189 C-46.12471375 85.14044189 -45.46471375 85.14044189 -44.78471375 85.14044189 C-44.79137558 84.54877228 -44.79803741 83.95710266 -44.80490112 83.34750366 C-44.87163684 77.14995802 -44.91667198 70.95251564 -44.94950867 64.75469971 C-44.96452916 62.44638925 -44.98495154 60.13810701 -45.0110321 57.82989502 C-45.04771259 54.49844365 -45.06450805 51.16737195 -45.0776825 47.83575439 C-45.09316635 46.81555206 -45.10865021 45.79534973 -45.12460327 44.74423218 C-45.12755502 31.97470469 -40.83555932 21.45591589 -32.28471375 11.95294189 C-23.2712276 3.39187011 -12.18077605 -0.01493865 0 0 Z M-24.15971375 21.89044189 C-24.76557312 22.48341064 -25.3714325 23.07637939 -25.99565125 23.68731689 C-32.85488645 33.09255643 -32.3554959 42.77162185 -32.30610657 53.95376587 C-32.31215083 55.88823111 -32.31993042 57.82269158 -32.3292917 59.75714362 C-32.34985353 65.06299349 -32.34548773 70.3685731 -32.33693051 75.67444515 C-32.33199638 81.40055188 -32.35002386 87.12659351 -32.36500549 92.85267639 C-32.39050444 104.06672871 -32.39408629 115.28068526 -32.38940497 126.49476169 C-32.38583897 135.60964349 -32.38933714 144.72449622 -32.39785385 153.83937454 C-32.39904423 155.1366236 -32.40023461 156.43387266 -32.40146106 157.7704323 C-32.40388456 160.40578846 -32.40631283 163.04114461 -32.40874581 165.67650075 C-32.42431989 183.37090658 -32.43215873 201.06529885 -32.42411232 218.75971031 C-32.42379957 219.45140023 -32.42348682 220.14309014 -32.42316459 220.85574036 C-32.42155306 224.36135697 -32.41986152 227.86697355 -32.41813798 231.37259011 C-32.41779581 232.06879458 -32.41745363 232.76499906 -32.41710109 233.48230064 C-32.41640777 234.89019434 -32.41571071 236.29808804 -32.41500991 237.70598173 C-32.40429547 259.61290974 -32.42015806 281.51967673 -32.45707703 303.42657471 C-32.49852467 328.04942201 -32.51989889 352.6721602 -32.51192605 377.2950455 C-32.50810022 390.32862495 -32.51309462 403.36205772 -32.54135513 416.39561081 C-32.56516948 427.49087766 -32.56800756 438.58590753 -32.5437748 449.6811776 C-32.53198803 455.34135176 -32.52982318 461.00109231 -32.5537796 466.66123772 C-32.57546629 471.84538357 -32.56932908 477.028733 -32.54125623 482.21284135 C-32.53595366 484.08556817 -32.54072291 485.95835709 -32.55672796 487.83102302 C-32.64903764 499.43983098 -32.01125008 508.2477308 -23.84183276 517.29119098 C-14.12224137 526.90123253 -2.35925445 526.72170013 10.44966125 526.65802002 C12.28710991 526.66344744 14.12455422 526.67057356 15.96199036 526.67926025 C20.92896289 526.69742284 25.89560133 526.69045534 30.86257935 526.67774391 C36.0735816 526.66757954 41.28455625 526.67701911 46.49555969 526.68328857 C55.24463508 526.69055498 63.99357518 526.6810037 72.74263 526.66192627 C82.8413159 526.64015951 92.93967871 526.64721159 103.03835678 526.66923189 C111.72656891 526.68741458 120.41468407 526.68993019 129.10290909 526.67947721 C134.28426149 526.67325806 139.46546229 526.67236314 144.64680481 526.68562317 C149.51924681 526.69722284 154.39127439 526.68908097 159.26367188 526.66604614 C161.04618646 526.66078099 162.82873624 526.66223502 164.61123657 526.6710968 C177.64198852 526.72988097 187.4941733 525.58464411 197.30513 516.29278564 C200.06223664 513.18610721 201.73179675 509.99136543 203.21528625 506.14044189 C203.5555294 505.43670716 203.89577255 504.73297243 204.24632609 504.0079124 C205.46353788 500.40578401 205.49374207 497.05976833 205.47255516 493.3038826 C205.47781427 492.12416523 205.47781427 492.12416523 205.48317963 490.9206152 C205.49251174 488.27517249 205.48756564 485.62994904 205.48271179 482.98449707 C205.48644714 481.07268683 205.4910482 479.16087812 205.49644244 477.24907184 C205.50870217 471.98739641 205.50840847 466.72578443 205.50605369 461.46409798 C205.50564627 455.79251241 205.51667751 450.12094738 205.52616882 444.44937134 C205.54279627 433.33439008 205.54827916 422.21943003 205.54939358 411.10443738 C205.55034326 402.07097225 205.55444955 393.03751412 205.56079483 384.00405121 C205.5755445 362.56997753 205.58784404 341.13591077 205.58679771 319.70183182 C205.58676656 319.0162417 205.5867354 318.33065159 205.5867033 317.62428602 C205.58653708 314.14939294 205.586339 310.67449988 205.58613388 307.19960681 C205.58609399 306.50947528 205.5860541 305.81934375 205.586013 305.10829914 C205.58593213 303.71268435 205.58584853 302.31706957 205.58576222 300.92145478 C205.58453682 279.20991849 205.59954725 257.49844468 205.62690735 235.78692627 C205.65763082 211.39633379 205.67481433 187.00579278 205.6729809 162.61517787 C205.67231646 149.70012115 205.67783259 136.78513489 205.69933701 123.8700943 C205.71752877 112.87389997 205.72191262 101.87780802 205.70831816 90.88160518 C205.70177833 85.27039544 205.70170805 79.65938224 205.71902466 74.04819107 C205.73471541 68.91102502 205.7319325 63.774212 205.71445639 58.63705477 C205.71137769 56.77904676 205.71505155 54.92101266 205.72617655 53.0630354 C205.97365952 40.04502936 205.97365952 40.04502936 201.21528625 28.14044189 C200.76927063 27.34251221 200.323255 26.54458252 199.86372375 25.72247314 C195.4028838 19.5238213 189.45623254 15.55409066 182.21528625 13.14044189 C179.67889162 13.0363853 177.16951073 12.98826791 174.63275146 12.98654175 C173.8532018 12.98215949 173.07365213 12.97777724 172.27047974 12.97326219 C169.64978456 12.95987302 167.02912301 12.953695 164.40840149 12.9475708 C162.53258105 12.93966977 160.65676214 12.93140082 158.78094482 12.92279053 C152.61193799 12.89656515 146.44292437 12.88125993 140.27388 12.86700439 C138.1496181 12.86164447 136.02535625 12.85626696 133.90109444 12.85087204 C125.06271547 12.82924039 116.22433834 12.81050494 107.3859396 12.79924965 C94.72458289 12.78301972 82.06353352 12.74986823 69.40229267 12.6928488 C60.49769095 12.65411699 51.59317132 12.63461296 42.68848759 12.62932909 C37.37168811 12.6256794 32.05521639 12.61369897 26.73850822 12.58122635 C21.73237428 12.55108976 16.72676545 12.54485392 11.72056007 12.55661011 C9.88803523 12.55683039 8.05548563 12.54856301 6.22304535 12.53095627 C-5.47096664 12.4247576 -15.49821883 13.03983137 -24.15971375 21.89044189 Z " fill="#201F1F" transform="translate(227.7847137451172,42.85955810546875)"/>
<path d="M0 0 C0.76507317 -0.00297112 1.53014634 -0.00594224 2.31840354 -0.0090034 C4.8721771 -0.0176482 7.42590355 -0.01919506 9.97969055 -0.02069092 C11.81492207 -0.0253221 13.65015263 -0.03034716 15.48538208 -0.03573608 C20.46494504 -0.04883357 25.44449454 -0.05529991 30.42407203 -0.05974674 C33.5381976 -0.06268187 36.65231952 -0.06678752 39.76644325 -0.07125092 C49.51878583 -0.08491913 59.27112004 -0.09458898 69.02347153 -0.09845281 C80.26440509 -0.10293142 91.50521692 -0.12047305 102.74611348 -0.1494534 C111.44612458 -0.17110107 120.14610151 -0.18115874 128.84613925 -0.18249393 C134.0370784 -0.18353978 139.22790302 -0.18940076 144.41881371 -0.20731354 C149.30506666 -0.22384751 154.19111963 -0.22592394 159.07739067 -0.21717453 C160.86433194 -0.21640699 162.65128421 -0.22070926 164.43819809 -0.23063278 C179.91724163 -0.31150941 193.61008915 1.48689103 205.51997375 12.28887939 C214.41173164 22.00015413 217.70615348 32.81142681 217.55586243 45.73077393 C217.55630051 46.73685196 217.55673859 47.74292999 217.55718994 48.77949524 C217.5551179 52.06928653 217.53186194 55.35855332 217.508255 58.64825439 C217.50265342 60.94324465 217.49838598 63.23823851 217.49539185 65.53323364 C217.48398745 71.54691633 217.4545583 77.5603785 217.42127991 83.57397461 C217.39048381 89.72110004 217.37686617 95.86826141 217.36177063 102.01544189 C217.32968429 114.05720496 217.2785415 126.09880502 217.21528625 138.14044189 C217.87528625 138.14044189 218.53528625 138.14044189 219.21528625 138.14044189 C219.21528625 159.26044189 219.21528625 180.38044189 219.21528625 202.14044189 C218.55528625 202.14044189 217.89528625 202.14044189 217.21528625 202.14044189 C217.21718486 202.77702406 217.21908346 203.41360622 217.22103959 204.06947875 C217.33299982 241.82257861 217.41875429 279.57565387 217.4706129 317.32888584 C217.47686622 321.86486704 217.48333785 326.40084791 217.48994446 330.93682861 C217.49125601 331.83983716 217.49256756 332.74284571 217.49391886 333.67321816 C217.51565838 348.28274681 217.55507187 362.89217679 217.60105024 377.50164697 C217.64785537 392.49922334 217.67559022 407.49674813 217.68572873 422.49439454 C217.69257949 431.74417225 217.71419433 440.99367105 217.75486859 450.24336287 C217.78135707 456.59156341 217.78927347 462.93962036 217.78279314 469.28787211 C217.77959969 472.94718136 217.78439494 476.60600423 217.81131363 480.26522636 C217.8403514 484.24177323 217.83017628 488.21769497 217.81655884 492.19433594 C217.83112305 493.33833917 217.84568725 494.48234241 217.8606928 495.66101241 C217.74568796 508.12999979 212.85991226 518.00306834 204.477005 527.00762939 C196.24163426 534.95314237 185.70067688 538.29043943 174.48126221 538.28761292 C173.69748013 538.2912896 172.91369805 538.29496629 172.10616499 538.29875439 C169.47708614 538.30977643 166.84804684 538.3136326 164.21894836 538.31744385 C162.33475113 538.32370972 160.45055513 538.33035663 158.56636047 538.33735657 C152.37512572 538.35838828 146.18389075 538.36875955 139.99263 538.37872314 C137.85941111 538.38277132 135.72619234 538.38688826 133.59297371 538.39107323 C123.56831918 538.41012457 113.54367201 538.42435456 103.51900285 538.4326852 C91.95823284 538.44245154 80.39765461 538.46875563 68.83695215 538.50918609 C59.89494604 538.53938183 50.95299479 538.55415744 42.0109387 538.55746621 C36.67349555 538.55981314 31.33625727 538.56872695 25.99886894 538.59392738 C20.9730717 538.61727294 15.9476133 538.62141526 10.92177582 538.611166 C9.08322838 538.61067207 7.2446639 538.61695007 5.40616798 538.63072205 C-8.40412581 538.7283343 -19.72415964 537.25651295 -30.78471375 528.14044189 C-33.3301513 525.62020669 -35.58856483 522.96733854 -37.78471375 520.14044189 C-38.52721375 519.21231689 -39.26971375 518.28419189 -40.03471375 517.32794189 C-44.60124918 509.01032377 -45.22080293 500.27615881 -45.14547729 490.9599762 C-45.14804057 489.78268155 -45.15060384 488.6053869 -45.15324479 487.39241666 C-45.15730394 484.15628215 -45.14803551 480.92051605 -45.13291061 477.684425 C-45.11987275 474.18288224 -45.12434515 470.68135454 -45.12661743 467.17979431 C-45.1281853 461.12361466 -45.11882722 455.06753248 -45.10190392 449.01137733 C-45.07745217 440.25536815 -45.06970235 431.49940577 -45.06593994 422.74336614 C-45.05938511 408.53495913 -45.03945032 394.32660398 -45.0110321 380.1182251 C-44.98346641 366.32167825 -44.96224513 352.52514552 -44.94950867 338.72857666 C-44.9487205 337.87718588 -44.94793233 337.02579511 -44.94712027 336.14860461 C-44.94320497 331.8771373 -44.93941389 327.60566989 -44.93568456 323.33420241 C-44.90461883 287.93624527 -44.85180952 252.53834838 -44.78471375 217.14044189 C-45.44471375 217.14044189 -46.10471375 217.14044189 -46.78471375 217.14044189 C-46.78471375 203.61044189 -46.78471375 190.08044189 -46.78471375 176.14044189 C-46.12471375 176.14044189 -45.46471375 176.14044189 -44.78471375 176.14044189 C-44.78471375 172.51044189 -44.78471375 168.88044189 -44.78471375 165.14044189 C-45.44471375 165.14044189 -46.10471375 165.14044189 -46.78471375 165.14044189 C-46.78471375 151.61044189 -46.78471375 138.08044189 -46.78471375 124.14044189 C-46.12471375 124.14044189 -45.46471375 124.14044189 -44.78471375 124.14044189 C-44.78471375 118.20044189 -44.78471375 112.26044189 -44.78471375 106.14044189 C-45.44471375 106.14044189 -46.10471375 106.14044189 -46.78471375 106.14044189 C-46.78471375 99.21044189 -46.78471375 92.28044189 -46.78471375 85.14044189 C-46.12471375 85.14044189 -45.46471375 85.14044189 -44.78471375 85.14044189 C-44.79137558 84.54877228 -44.79803741 83.95710266 -44.80490112 83.34750366 C-44.87163684 77.14995802 -44.91667198 70.95251564 -44.94950867 64.75469971 C-44.96452916 62.44638925 -44.98495154 60.13810701 -45.0110321 57.82989502 C-45.04771259 54.49844365 -45.06450805 51.16737195 -45.0776825 47.83575439 C-45.09316635 46.81555206 -45.10865021 45.79534973 -45.12460327 44.74423218 C-45.12755502 31.97470469 -40.83555932 21.45591589 -32.28471375 11.95294189 C-23.2712276 3.39187011 -12.18077605 -0.01493865 0 0 Z M-19.78471375 9.14044189 C-20.67545593 9.59805908 -21.56619812 10.05567627 -22.4839325 10.52716064 C-31.24361029 16.25795181 -37.10255492 23.97740993 -39.78471375 34.14044189 C-40.54965912 40.4264598 -40.33831141 46.8094299 -40.31283569 53.12976074 C-40.31959792 55.07120114 -40.32809074 57.01263615 -40.33815891 58.95406222 C-40.36064068 64.27465742 -40.35823107 69.59499179 -40.35158956 74.91561961 C-40.34871226 80.65949429 -40.36877415 86.40329649 -40.38574219 92.1471405 C-40.41508702 103.3948101 -40.42239207 114.64238997 -40.42116668 125.89009389 C-40.42033402 135.03400755 -40.42619751 144.17789285 -40.43679237 153.32180023 C-40.46146565 175.03743885 -40.48189262 196.75305375 -40.47592449 218.46870804 C-40.47573696 219.162722 -40.47554942 219.85673597 -40.47535621 220.57178066 C-40.47438425 224.08909564 -40.4733404 227.60641061 -40.47227349 231.12372556 C-40.47206251 231.82223998 -40.47185153 232.52075441 -40.47163416 233.24043593 C-40.47120663 234.65300134 -40.47077451 236.06556675 -40.47033779 237.47813215 C-40.46375653 259.45240347 -40.48669508 281.42647334 -40.53251648 303.4006958 C-40.58399541 328.10561748 -40.61183124 352.81040523 -40.60601455 377.51538444 C-40.60343918 390.58987108 -40.61140524 403.66415062 -40.64708519 416.73859406 C-40.67722365 427.87000417 -40.68295125 439.00109937 -40.65727618 450.13252625 C-40.64486495 455.80934073 -40.64361639 461.48556349 -40.67298508 467.16232872 C-40.69960993 472.36518679 -40.69357231 477.56697442 -40.66215513 482.76979634 C-40.65644641 484.64591429 -40.66240841 486.52211425 -40.68161114 488.39814261 C-40.81537514 502.42027096 -38.64380966 512.7469892 -29.09721375 523.64044189 C-20.34876072 531.57032622 -10.56891791 534.2950983 0.96876526 534.28088379 C2.11130803 534.28534047 2.11130803 534.28534047 3.27693248 534.28988719 C5.81922053 534.29853147 8.36146126 534.3000788 10.90376282 534.30157471 C12.73076477 534.30620588 14.55776575 534.31123095 16.38476562 534.31661987 C21.3415349 534.32971647 26.29829064 534.33618341 31.2550745 534.34063053 C34.35445143 534.34356551 37.45382469 534.34767111 40.55319977 534.3521347 C50.25801998 534.36580204 59.96283178 534.37547259 69.66766095 534.3793366 C80.85653428 534.38381645 92.04528539 534.40136424 103.23412156 534.43033719 C111.8925038 534.45197668 120.55085171 534.46204208 129.2092607 534.46337771 C134.37613488 534.46442406 139.54289406 534.47029563 144.70973969 534.48819733 C149.57218734 534.50471735 154.43443401 534.50681445 159.2968998 534.49805832 C161.07619835 534.49729007 162.85550788 534.5016026 164.63477898 534.51151657 C178.62701426 534.58487557 190.00467841 533.30666385 201.21528625 524.14044189 C212.81814819 511.79903934 213.80820872 498.2132422 213.72994995 482.16963196 C213.73528142 480.2546275 213.74235055 478.33962723 213.75099701 476.42463487 C213.76957147 471.18642412 213.76333723 465.9484971 213.75284398 460.71027482 C213.74583726 455.05167268 213.76186106 449.39312796 213.77484131 443.73454285 C213.79646167 432.65858987 213.79635945 421.58273972 213.78821576 410.50677259 C213.78191108 401.50305984 213.78305711 392.49937703 213.78948784 383.4956646 C213.79038949 382.21327626 213.79129115 380.93088792 213.79222013 379.60963933 C213.79407136 377.00432423 213.79593392 374.39900915 213.79780769 371.79369407 C213.80967403 354.30717719 213.81409152 336.82067807 213.80287266 319.3341608 C213.80243469 318.65093368 213.80199672 317.96770655 213.80154547 317.26377556 C213.79793893 311.71608052 213.79410402 306.16838563 213.79025454 300.62069075 C213.77540733 278.98180124 213.78418873 257.34303796 213.81221008 235.7041626 C213.84365954 211.37169871 213.85853336 187.03932719 213.84841007 162.7068395 C213.84738754 160.11090466 213.84639293 157.51496982 213.84542656 154.91903496 C213.84495017 153.6418569 213.84447378 152.36467885 213.84398295 151.04879843 C213.84182034 142.05886087 213.8516148 133.06898219 213.86619759 124.07905769 C213.88372853 113.11898515 213.88359239 102.15908413 213.86084593 91.19901831 C213.84971099 85.60950886 213.84652468 80.02030153 213.86514664 74.43080521 C213.88199044 69.30904959 213.87554723 64.18785869 213.85092985 59.06613939 C213.84605902 57.2183676 213.84952806 55.37054992 213.86241729 53.52281667 C213.9529301 39.5321931 212.44090536 26.92849649 202.38716125 16.18731689 C191.0781189 5.20371461 179.19840412 4.40546028 164.2948761 4.50933838 C162.40787078 4.5041914 160.52087029 4.49690428 158.63388062 4.48765564 C153.54092373 4.46923518 148.44849436 4.48201989 143.35555983 4.50174594 C138.00977499 4.5182065 132.66402162 4.5093095 127.31822205 4.50422668 C118.34567396 4.49971477 109.37333496 4.51552152 100.40083313 4.54351807 C90.04421032 4.57558531 79.68796406 4.57554363 69.33131444 4.5583033 C59.34346976 4.54241308 49.35576244 4.54918658 39.36792374 4.56624031 C35.12811731 4.57309235 30.88842159 4.57209743 26.64861679 4.56469536 C21.65301865 4.55700662 16.65784668 4.569243 11.66232109 4.59654427 C9.83465909 4.60340132 8.00695708 4.60355499 6.17929649 4.59632874 C-7.26588621 4.54835575 -7.26588621 4.54835575 -19.78471375 9.14044189 Z " fill="#50404F" transform="translate(227.7847137451172,42.85955810546875)"/>
<path d="M0 0 C0.66 0 1.32 0 2 0 C1.99945793 0.98707368 1.99891585 1.97414737 1.99835736 2.99113238 C1.97491804 46.50950037 1.96029293 90.02786598 1.98960876 133.54623413 C1.9900521 134.20546824 1.99049544 134.86470235 1.99095221 135.54391325 C2.00063996 149.87213358 2.01188221 164.20035231 2.02472496 178.52857015 C2.03101393 185.55550486 2.03695952 192.58243984 2.04272461 199.609375 C2.04330414 200.3086256 2.04388367 201.00787619 2.04448076 201.7283162 C2.06309152 224.37783233 2.0590445 247.02727527 2.0432008 269.67679131 C2.02657556 293.62001424 2.03586738 317.56310243 2.07234758 341.5063051 C2.09335969 355.84461779 2.09374569 370.18262556 2.06768017 384.52093123 C2.0517826 394.35558139 2.06164382 404.18999646 2.09166015 414.0246128 C2.10821625 419.69729511 2.11351154 425.36939209 2.08818626 431.04205513 C2.0652244 436.24162945 2.07480702 441.44011829 2.10963994 446.63961725 C2.11657052 448.51468025 2.11183461 450.38983287 2.0938629 452.26482256 C1.97219806 465.938026 3.98831937 476.26981285 13.1875 487 C21.74735714 494.63027989 31.58434186 497.15420236 42.753479 497.14044189 C43.89602178 497.14489858 43.89602178 497.14489858 45.06164622 497.1494453 C47.60393428 497.15808958 50.146175 497.15963691 52.68847656 497.16113281 C54.51547851 497.16576399 56.3424795 497.17078905 58.16947937 497.17617798 C63.12624864 497.18927458 68.08300438 497.19574151 73.03978825 497.20018864 C76.13916517 497.20312362 79.23853844 497.20722922 82.33791351 497.21169281 C92.04273373 497.22536015 101.74754553 497.2350307 111.4523747 497.2388947 C122.64124802 497.24337456 133.82999913 497.26092235 145.01883531 497.2898953 C153.67721755 497.31153478 162.33556546 497.32160018 170.99397445 497.32293582 C176.16084863 497.32398216 181.3276078 497.32985374 186.49445343 497.34775543 C191.35690109 497.36427545 196.21914776 497.36637255 201.08161354 497.35761642 C202.86091209 497.35684817 204.64022163 497.3611607 206.41949272 497.37107468 C221.4360946 497.44980427 233.06243325 495.62546379 244.8046875 485.43359375 C245.91491308 484.33277686 246.96793901 483.17441423 248 482 C248 483.32 248 484.64 248 486 C248.99 485.34 249.98 484.68 251 484 C247.78233174 491.44707757 240.93946434 495.88404133 233.6875 498.9375 C227.66640209 501.25936128 222.72379389 502.14879794 216.26597595 502.14717102 C215.48219387 502.15084771 214.69841179 502.1545244 213.89087874 502.1583125 C211.26179989 502.16933454 208.63276059 502.1731907 206.00366211 502.17700195 C204.11946487 502.18326782 202.23526887 502.18991474 200.35107422 502.19691467 C194.15983947 502.21794639 187.9686045 502.22831765 181.77734375 502.23828125 C179.64412485 502.24232943 177.51090609 502.24644637 175.37768745 502.25063133 C165.35303293 502.26968268 155.32838575 502.28391267 145.3037166 502.2922433 C133.74294659 502.30200964 122.18236835 502.32831373 110.62166589 502.36874419 C101.67965979 502.39893993 92.73770854 502.41371555 83.79565245 502.41702431 C78.45820929 502.41937124 73.12097102 502.42828506 67.78358269 502.45348549 C62.75778545 502.47683104 57.73232705 502.48097336 52.70648956 502.47072411 C50.86794213 502.47023018 49.02937765 502.47650817 47.19088173 502.49028015 C33.38239178 502.58787966 22.05792411 501.11757139 11 492 C7.14253858 488.18006253 3.27328633 483.97281384 1 479 C1.33 478.01 1.66 477.02 2 476 C1.64703656 473.70573763 1.17105059 471.53872581 0.46862799 469.32643771 C-0.20855214 465.96467226 -0.13518966 462.62880324 -0.12304783 459.21449661 C-0.12420167 458.42141072 -0.12535552 457.62832484 -0.12654433 456.81120604 C-0.12920409 454.13740184 -0.12469405 451.46365712 -0.12025452 448.78985596 C-0.12069035 446.86012182 -0.12156548 444.93038774 -0.12284368 443.00065398 C-0.12508628 437.68514889 -0.12107054 432.36966384 -0.11606562 427.05416131 C-0.11175796 421.32684341 -0.11320777 415.5995267 -0.1139679 409.87220764 C-0.11449293 399.94499696 -0.11134827 390.01779283 -0.10573006 380.0905838 C-0.09761228 365.73740245 -0.09499955 351.38422428 -0.09374207 337.03104088 C-0.09155198 313.74546422 -0.08490165 290.45989115 -0.07543945 267.17431641 C-0.06625694 244.5509442 -0.05917239 221.92757292 -0.05493164 199.30419922 C-0.05480011 198.60700121 -0.05466859 197.90980321 -0.05453308 197.19147799 C-0.05321457 190.19000871 -0.05193875 183.18853942 -0.05069422 176.18707013 C-0.04025091 117.45804445 -0.0226026 58.72902224 0 0 Z " fill="#4C3E47" transform="translate(186,79)"/>
<path d="M0 0 C0 4.61020409 -2.46151294 7.9770386 -4.58984375 11.9921875 C-7.04438496 17.22763551 -7.14519915 22.17401276 -7.13142776 27.8806181 C-7.1334804 28.67186186 -7.13553303 29.46310563 -7.13764787 30.27832648 C-7.14331971 32.93993566 -7.14186039 35.60149313 -7.14044189 38.2631073 C-7.14302542 40.18657803 -7.14603855 42.11004821 -7.1494453 44.03351766 C-7.15751997 49.32745243 -7.15930513 54.62137364 -7.16004276 59.91531384 C-7.1618925 65.62167737 -7.16943942 71.32803385 -7.17617798 77.03439331 C-7.18976502 89.51577462 -7.19578656 101.99715271 -7.20018864 114.47854018 C-7.20295036 122.27036021 -7.20718758 130.062179 -7.21169281 137.85399818 C-7.22388583 159.42274892 -7.23422055 180.99149816 -7.2375679 202.56025219 C-7.23778953 203.95488171 -7.23801132 205.34951124 -7.23823325 206.74414076 C-7.23845389 208.14212623 -7.23867438 209.54011171 -7.2388947 210.93809718 C-7.23933725 213.742667 -7.23978437 216.54723682 -7.24023438 219.35180664 C-7.24034377 220.04717616 -7.24045316 220.74254567 -7.24056586 221.45898699 C-7.24419644 244.00603378 -7.26011682 266.55304841 -7.28342474 289.10008288 C-7.30802555 312.94141651 -7.32173413 336.7827297 -7.32293582 360.62407666 C-7.32385293 373.61907893 -7.32961447 386.61403909 -7.34775543 399.60902977 C-7.36314752 410.67398357 -7.36828212 421.73888225 -7.36001733 432.80384471 C-7.35610773 438.44957773 -7.35705569 444.09519972 -7.37107468 449.74091911 C-7.38379468 454.91077269 -7.38263268 460.0804316 -7.37048396 465.25028483 C-7.36852369 467.11907802 -7.37162064 468.98788491 -7.38032833 470.85665884 C-7.55271347 483.24650095 -7.55271347 483.24650095 -4.54567409 495.18391496 C-4 497 -4 497 -5 500 C-10.76376879 494.23623121 -11.22771782 486.33423339 -11.25816262 478.61092001 C-11.25233693 477.51849869 -11.24651125 476.42607737 -11.24050903 475.30055237 C-11.24221788 474.12667542 -11.24392673 472.95279847 -11.24568737 471.74334949 C-11.2484055 468.49825486 -11.24217988 465.2533212 -11.23213124 462.00824559 C-11.22347536 458.50390523 -11.22641841 454.99957205 -11.22793579 451.495224 C-11.22898329 445.42808324 -11.2227208 439.36098558 -11.21146011 433.29385567 C-11.19518978 424.5218655 -11.18999554 415.74989613 -11.18748413 406.97789251 C-11.18310944 392.74509687 -11.16980645 378.51232419 -11.15087891 364.27954102 C-11.13251427 350.45564895 -11.11836062 336.63176313 -11.10986328 322.80786133 C-11.10933783 321.95541966 -11.10881239 321.10297799 -11.10827102 320.22470475 C-11.1056609 315.94815485 -11.10313349 311.67160491 -11.10064721 307.39505494 C-11.07992173 271.93002026 -11.04470234 236.46501225 -11 201 C-11.66 201 -12.32 201 -13 201 C-13 187.47 -13 173.94 -13 160 C-12.34 160 -11.68 160 -11 160 C-11 156.37 -11 152.74 -11 149 C-11.66 149 -12.32 149 -13 149 C-13 135.47 -13 121.94 -13 108 C-12.34 108 -11.68 108 -11 108 C-11 102.06 -11 96.12 -11 90 C-11.66 90 -12.32 90 -13 90 C-13 83.07 -13 76.14 -13 69 C-12.34 69 -11.68 69 -11 69 C-11.00666183 68.40833038 -11.01332367 67.81666077 -11.02018738 67.20706177 C-11.08692309 61.00951612 -11.13195823 54.81207375 -11.16479492 48.61425781 C-11.17981541 46.30594735 -11.20023779 43.99766512 -11.22631836 41.68945312 C-11.26299885 38.35800175 -11.27979431 35.02693005 -11.29296875 31.6953125 C-11.30845261 30.67511017 -11.32393646 29.65490784 -11.33988953 28.60379028 C-11.34207896 19.13210025 -9.31895171 10.89783738 -4 3 C-1.75 1.0625 -1.75 1.0625 0 0 Z " fill="#95838F" transform="translate(194,59)"/>
<path d="M0 0 C2.96865509 2.54456151 4.3619751 5.48994665 6 9 C6.33 9 6.66 9 7 9 C8.30930433 13.97679939 8.13294489 18.91757916 8.11352539 24.02270508 C8.11367142 25.02805298 8.11381744 26.03340088 8.1139679 27.06921387 C8.11327228 30.38600842 8.10549625 33.70274653 8.09765625 37.01953125 C8.09579083 39.32167022 8.09436751 41.62380959 8.09336853 43.9259491 C8.08955316 49.9807139 8.0797312 56.03545465 8.06866455 62.09020996 C8.05842939 68.27042312 8.0538664 74.45064018 8.04882812 80.63085938 C8.03810808 92.75391681 8.02104339 104.8769564 8 117 C8.66 117 9.32 117 10 117 C10 138.12 10 159.24 10 181 C9.34 181 8.68 181 8 181 C8.0018986 181.63658216 8.0037972 182.27316432 8.00575334 182.92903686 C8.11771356 220.68213672 8.20346803 258.43521197 8.25532665 296.18844394 C8.26157997 300.72442515 8.2680516 305.26040602 8.2746582 309.79638672 C8.27662553 311.15089954 8.27662553 311.15089954 8.2786326 312.53277627 C8.30037212 327.14230491 8.33978562 341.7517349 8.38576398 356.36120507 C8.43256911 371.35878144 8.46030397 386.35630624 8.47044247 401.35395265 C8.47729323 410.60373035 8.49890807 419.85322915 8.53958233 429.10292098 C8.56607082 435.45112151 8.57398722 441.79917846 8.56750689 448.14743021 C8.56431343 451.80673946 8.56910869 455.46556234 8.59602737 459.12478447 C8.62506514 463.10133134 8.61489002 467.07725308 8.60127258 471.05389404 C8.61583679 472.19789728 8.630401 473.34190052 8.64540654 474.52057052 C8.56404692 483.34169568 6.66430782 492.6137003 0.3125 499.1875 C-2 501 -2 501 -4 502 C-3.57785989 496.93431873 -2.38204549 493.34135048 0.01171875 488.8671875 C1.18940379 486.64215411 2.11663644 484.35563615 3 482 C3.66 482 4.32 482 5 482 C4.9411324 422.54975633 4.86660121 363.09954676 4.77101372 303.6493508 C4.75973531 296.63228224 4.74860353 289.61521345 4.73754883 282.59814453 C4.73644626 281.89986574 4.7353437 281.20158695 4.73420772 280.4821482 C4.69854588 257.85320469 4.67256509 235.22426266 4.65161031 212.59530115 C4.62941138 188.67961324 4.59616934 164.76396458 4.55129844 140.84830797 C4.52477647 126.52236428 4.50708509 112.19646537 4.50065396 97.87049834 C4.49540178 88.0494872 4.47919042 78.22853243 4.45433434 68.40755148 C4.44031367 62.73958934 4.4311507 57.07172813 4.43499184 51.40374756 C4.43840269 46.21331827 4.42803333 41.02310452 4.40676448 35.83271937 C4.40149735 33.9563836 4.40126088 32.08002544 4.40660437 30.20368989 C4.43004162 21.0393641 4.35494748 12.6662456 1 4 C0.64861502 2.67130986 0.30975623 1.33900708 0 0 Z " fill="#8E818D" transform="translate(437,64)"/>
<path d="M0 0 C1.18908966 -0.0007251 2.37817932 -0.0014502 3.603302 -0.00219727 C22.82185737 -0.00090794 41.9116225 0.55708453 61.0625 2.1875 C61.0625 2.5175 61.0625 2.8475 61.0625 3.1875 C60.35222656 3.24808594 59.64195312 3.30867187 58.91015625 3.37109375 C57.99105469 3.45488281 57.07195312 3.53867187 56.125 3.625 C55.20847656 3.70621094 54.29195312 3.78742187 53.34765625 3.87109375 C51.10090268 3.94794976 51.10090268 3.94794976 50.0625 5.1875 C60.9525 5.6825 60.9525 5.6825 72.0625 6.1875 C72.0625 6.5175 72.0625 6.8475 72.0625 7.1875 C71.47235107 7.21255615 70.88220215 7.2376123 70.27416992 7.26342773 C67.59923186 7.37950052 64.9246362 7.50217572 62.25 7.625 C60.8568457 7.68397461 60.8568457 7.68397461 59.43554688 7.74414062 C58.0965332 7.80698242 58.0965332 7.80698242 56.73046875 7.87109375 C55.49719849 7.92608032 55.49719849 7.92608032 54.23901367 7.98217773 C51.88344822 8.12177772 51.88344822 8.12177772 49.0625 9.1875 C47.5525565 9.27857131 46.03890189 9.3137782 44.5262146 9.31448364 C43.13068108 9.31871338 43.13068108 9.31871338 41.70695496 9.32302856 C40.68781509 9.32100433 39.66867523 9.3189801 38.61865234 9.31689453 C37.54336777 9.31864685 36.46808319 9.32039917 35.36021423 9.32220459 C31.78960575 9.32662018 28.21904653 9.32368323 24.6484375 9.3203125 C22.15996288 9.32098631 19.67148832 9.32195699 17.18301392 9.32321167 C11.95240783 9.32468881 6.72181451 9.32263179 1.49121094 9.31787109 C-5.17140533 9.31187612 -11.83397416 9.31542624 -18.49659157 9.32144356 C-23.64600929 9.32508422 -28.79541764 9.32389389 -33.94483566 9.32131577 C-36.39810567 9.32065399 -38.85137656 9.32144836 -41.30464554 9.32379532 C-79.19067709 9.35204861 -79.19067709 9.35204861 -83.9375 6.1875 C-83.0088916 6.14262451 -82.0802832 6.09774902 -81.12353516 6.05151367 C-77.68247716 5.87840444 -74.24261246 5.69249133 -70.80273438 5.49780273 C-69.3130994 5.41614554 -67.82317396 5.33962051 -66.33300781 5.26831055 C-64.19238941 5.16498509 -62.0534903 5.04331344 -59.9140625 4.91796875 C-58.62580566 4.84989014 -57.33754883 4.78181152 -56.01025391 4.71166992 C-54.99624512 4.53869385 -53.98223633 4.36571777 -52.9375 4.1875 C-52.2775 3.1975 -51.6175 2.2075 -50.9375 1.1875 C-48.93479919 0.75810242 -48.93479919 0.75810242 -46.43920898 0.68237305 C-45.03349388 0.63050591 -45.03349388 0.63050591 -43.59938049 0.57759094 C-42.06325356 0.54498421 -42.06325356 0.54498421 -40.49609375 0.51171875 C-38.89235146 0.46249519 -38.89235146 0.46249519 -37.25621033 0.41227722 C-24.83997272 0.06404689 -12.42041208 -0.00780061 0 0 Z " fill="#B1B0AE" transform="translate(317.9375,602.8125)"/>
<path d="M0 0 C0.90458954 -0.00960754 1.80917908 -0.01921509 2.74118042 -0.02911377 C3.71620514 -0.03336365 4.69122986 -0.03761353 5.69580078 -0.04199219 C7.20317307 -0.0505423 7.20317307 -0.0505423 8.74099731 -0.05926514 C10.86768542 -0.06871296 12.99438815 -0.07524825 15.12109375 -0.07910156 C18.37151661 -0.08880866 21.62130755 -0.11983504 24.87158203 -0.15136719 C26.93798453 -0.15789724 29.00439154 -0.16314771 31.07080078 -0.16699219 C32.52726517 -0.18551239 32.52726517 -0.18551239 34.01315308 -0.20440674 C38.96352073 -0.18809689 42.54886877 -0.17212351 46.51611328 3.16113281 C48.06198204 6.25287033 47.80970849 8.75542834 47.51611328 12.16113281 C45.64902823 14.52610721 44.19549897 15.82143997 41.51611328 17.16113281 C40.03176555 17.27586028 38.54254481 17.33052681 37.05395508 17.35400391 C36.12926926 17.37006683 35.20458344 17.38612976 34.25187683 17.40267944 C30.02103381 17.44711326 25.79034793 17.48819349 21.55932617 17.51123047 C19.32744929 17.52779296 17.09562551 17.55508662 14.86401367 17.59326172 C11.64750631 17.64800875 8.43224248 17.66990152 5.21533203 17.68457031 C4.21934494 17.70723969 3.22335785 17.72990906 2.19718933 17.75326538 C-2.49543862 17.73894833 -4.75255059 17.69960472 -8.62133789 14.85107422 C-11.05123007 11.3417608 -11.09295175 9.3484549 -10.48388672 5.16113281 C-7.94273961 0.56286661 -4.99533644 0.04287951 0 0 Z " fill="#1D1B1C" transform="translate(294.48388671875,63.8388671875)"/>
<path d="M0 0 C0.99 1.0209375 0.99 1.0209375 2 2.0625 C2.99794237 3.04376367 3.99819057 4.02268469 5 5 C5.55816406 5.56589844 6.11632812 6.13179687 6.69140625 6.71484375 C17.73921226 17.25523487 29.74991489 17.73329324 44.1640625 17.64697266 C46.07738066 17.65375943 47.99069229 17.66266848 49.9039917 17.67352295 C55.06937623 17.69619677 60.23425796 17.68752936 65.39965057 17.67162752 C70.82325017 17.65890653 76.24680874 17.67072578 81.67041016 17.67855835 C90.7757942 17.68763691 99.88097499 17.67571411 108.98632812 17.65185547 C119.49064994 17.62464776 129.9944864 17.63346319 140.49879646 17.6609875 C149.54208065 17.68372871 158.58521931 17.68685416 167.62852287 17.67379415 C173.01896995 17.66602718 178.40918942 17.66488196 183.79962158 17.68147659 C188.86915892 17.69599517 193.93807477 17.68576527 199.00754547 17.65700531 C200.86017071 17.65043382 202.7128489 17.65222413 204.56545258 17.66331863 C217.93392924 17.735953 228.75097187 16.43989433 239 7 C239.66 7 240.32 7 241 7 C240.62992897 9.56287996 240.25850366 10.75439082 238.35546875 12.5625 C226.0045015 20.75197018 214.44468248 21.58736812 200.09545898 21.51757812 C198.21007753 21.52300772 196.32470033 21.53013506 194.43933105 21.53881836 C189.35051526 21.55695375 184.26202617 21.55002514 179.17320514 21.53730202 C173.83055458 21.52712491 168.48793067 21.53658058 163.14527893 21.54284668 C154.1769614 21.55010878 145.20877596 21.5405725 136.24047852 21.52148438 C125.89183709 21.49971182 115.5435109 21.50677567 105.19487709 21.52879 C96.28665399 21.54697707 87.37852544 21.54948636 78.47028977 21.53903532 C73.15982752 21.53281942 67.84951317 21.53191232 62.53906059 21.54518127 C57.54593872 21.55678761 52.55322101 21.548627 47.56014252 21.52560425 C45.73450705 21.52034292 43.90883722 21.52178646 42.08321571 21.53065491 C26.35483343 21.5999805 15.32795988 18.7732999 3 8.5 C0.6915131 5.61439137 0.25446467 3.64732701 0 0 Z " fill="#7A6D76" transform="translate(191,560)"/>
<path d="M0 0 C3.92228564 0.00641368 7.84457279 0.00685112 11.76686287 0.00802541 C19.13586737 0.01108723 26.50485637 0.01922822 33.87385416 0.0293749 C42.28797691 0.04069976 50.70210054 0.04608697 59.11622906 0.05107033 C76.37067281 0.06141758 93.62510163 0.07891292 110.87953377 0.10139394 C110.87953377 0.76139394 110.87953377 1.42139394 110.87953377 2.10139394 C111.86953377 2.59639394 111.86953377 2.59639394 112.87953377 3.10139394 C112.21953377 3.10139394 111.55953377 3.10139394 110.87953377 3.10139394 C110.54953377 3.76139394 110.21953377 4.42139394 109.87953377 5.10139394 C107.88812817 5.48272693 105.886743 5.81464976 103.87953377 6.10139394 C103.21953377 6.43139394 102.55953377 6.76139394 101.87953377 7.10139394 C101.87953377 6.44139394 101.87953377 5.78139394 101.87953377 5.10139394 C97.23366484 5.58623669 97.23366484 5.58623669 92.87953377 7.10139394 C91.88953377 6.77139394 90.89953377 6.44139394 89.87953377 6.10139394 C85.4784016 5.57771601 81.05194529 5.32115048 76.62953377 5.03889394 C75.93635048 4.99437093 75.24316719 4.94984792 74.52897835 4.90397573 C59.30004819 3.96807439 44.07028887 3.90885995 28.81703377 3.91389394 C27.66223518 3.9130782 26.5074366 3.91226247 25.31764412 3.91142201 C12.95634497 3.91240867 0.611075 4.06925242 -11.74155998 4.55061269 C-12.77402351 4.58910832 -13.80648705 4.62760396 -14.87023735 4.66726613 C-15.81060341 4.70828954 -16.75096947 4.74931294 -17.71983147 4.79157948 C-18.96300385 4.84477597 -18.96300385 4.84477597 -20.23129082 4.89904714 C-22.13091309 4.90258117 -22.13091309 4.90258117 -23.12046623 6.10139394 C-25.92224589 6.20166816 -28.69395736 6.24012682 -31.49546623 6.22639394 C-32.27663811 6.23026113 -33.05780998 6.23412831 -33.86265373 6.23811269 C-37.19706083 6.23240309 -39.9365361 6.16270398 -43.12046623 5.10139394 C-44.74613702 4.95424195 -46.3763348 4.85417527 -48.00718498 4.78498769 C-48.94497795 4.74309316 -49.88277092 4.70119863 -50.84898186 4.65803456 C-51.8254467 4.61871816 -52.80191154 4.57940175 -53.80796623 4.53889394 C-54.79603264 4.49571034 -55.78409904 4.45252675 -56.80210686 4.40803456 C-59.24142169 4.3019774 -61.68083737 4.1999168 -64.12046623 4.10139394 C-64.12046623 3.11139394 -64.12046623 2.12139394 -64.12046623 1.10139394 C-42.73899743 0.29453013 -21.39541413 -0.0411577 0 0 Z " fill="#E2E1DF" transform="translate(289.1204662322998,599.8986060619354)"/>
<path d="M0 0 C0.7664843 -0.00226556 1.5329686 -0.00453111 2.3226797 -0.00686532 C4.88112548 -0.01317585 7.43951789 -0.01237786 9.99797058 -0.0115509 C11.83644682 -0.01454424 13.67492243 -0.01794717 15.51339722 -0.02172852 C20.50109382 -0.03055509 25.48877325 -0.03290607 30.47647691 -0.0335443 C33.5946071 -0.03425558 36.71273294 -0.03639138 39.83086205 -0.03904152 C50.7146927 -0.04829059 61.59851112 -0.05237697 72.48234558 -0.05158997 C82.6183703 -0.05098933 92.75434178 -0.06153953 102.89035302 -0.07733363 C111.60052389 -0.09042101 120.31067737 -0.09577336 129.02085799 -0.09513456 C134.21952956 -0.09487992 139.41815381 -0.09771238 144.61681557 -0.10831261 C149.507956 -0.11801369 154.39900404 -0.11805897 159.29014778 -0.11079597 C161.08115016 -0.10975263 162.87215835 -0.11209815 164.66315079 -0.11815643 C182.56331049 -0.17476504 182.56331049 -0.17476504 189.201828 2.13371277 C190.92376423 4.21088886 190.92376423 4.21088886 192.201828 6.13371277 C190.93359192 5.80937759 189.66535583 5.48504242 188.35868835 5.15087891 C180.22126978 3.53847687 171.95072811 3.84630479 163.69206238 3.85905457 C161.82506101 3.85470172 159.95806142 3.84951666 158.09106445 3.84356689 C153.0436052 3.83022927 147.99622106 3.82959223 142.94874763 3.83213019 C138.72660967 3.83320318 134.50448671 3.82830833 130.28235197 3.82352477 C120.31913846 3.81244832 110.35596266 3.8119821 100.39274597 3.81803894 C90.1305222 3.82408176 79.86843543 3.81175557 69.60623503 3.79046887 C60.77791584 3.77283301 51.94964018 3.76685453 43.12130404 3.77010661 C37.85613048 3.77191598 32.59105474 3.7693176 27.32589722 3.75539207 C22.37474158 3.74278555 17.4237992 3.74478454 12.47264671 3.75780296 C10.66109837 3.7601619 8.84953488 3.75745865 7.03800392 3.74917984 C-9.17924383 3.57577113 -9.17924383 3.57577113 -23.673172 10.19621277 C-26.31284003 12.11021561 -28.84163984 13.74825263 -31.798172 15.13371277 C-31.41378277 12.65653777 -31.04360211 11.38415166 -29.266922 9.57121277 C-19.89172187 2.72582855 -11.64972696 -0.02548558 0 0 Z " fill="#887A87" transform="translate(227.7981719970703,42.86628723144531)"/>
<path d="M0 0 C0.33 0 0.66 0 1 0 C1 151.8 1 303.6 1 460 C0.67 460 0.34 460 0 460 C0 366.94 0 273.88 0 178 C-0.66 178 -1.32 178 -2 178 C-2 164.47 -2 150.94 -2 137 C-1.34 137 -0.68 137 0 137 C0 133.37 0 129.74 0 126 C-0.66 126 -1.32 126 -2 126 C-2 112.47 -2 98.94 -2 85 C-1.34 85 -0.68 85 0 85 C0 79.06 0 73.12 0 67 C-0.66 67 -1.32 67 -2 67 C-2 60.07 -2 53.14 -2 46 C-1.34 46 -0.68 46 0 46 C0 30.82 0 15.64 0 0 Z " fill="#62525D" transform="translate(183,82)"/>
<path d="M0 0 C2.07179079 3.10768619 2.24907628 3.7541877 2.24050903 7.27104187 C2.24325836 8.14182373 2.24600769 9.01260559 2.24884033 9.90977478 C2.24164978 10.86211502 2.23445923 11.81445526 2.22705078 12.7956543 C2.22734283 13.80071014 2.22763489 14.80576599 2.22793579 15.84127808 C2.22654055 19.16901227 2.21097005 22.49652359 2.1953125 25.82421875 C2.19158307 28.12921527 2.18873577 30.43421337 2.18673706 32.73921204 C2.17909514 38.81047938 2.1594418 44.88165127 2.1373291 50.95288086 C2.11688273 57.14630848 2.10773793 63.3397515 2.09765625 69.53320312 C2.07619649 81.68884406 2.04205376 93.8444141 2 106 C2.66 106 3.32 106 4 106 C4 127.12 4 148.24 4 170 C3.34 170 2.68 170 2 170 C2 268.67 2 367.34 2 469 C1.67 469 1.34 469 1 469 C0.67 314.23 0.34 159.46 0 0 Z " fill="#493E48" transform="translate(443,75)"/>
<path d="M0 0 C1.2698877 -0.00451172 2.53977539 -0.00902344 3.84814453 -0.01367188 C5.08806152 -0.01173828 6.32797852 -0.00980469 7.60546875 -0.0078125 C8.7039917 -0.00668457 9.80251465 -0.00555664 10.93432617 -0.00439453 C13.946105 0.0960929 16.84431485 0.32405531 19.83618164 0.62719727 C29.74517827 1.48685757 39.70330931 1.24753463 49.640625 1.22265625 C51.84307828 1.22078816 54.04553199 1.21936611 56.24798584 1.21836853 C62.00837375 1.2145741 67.76873593 1.20477048 73.52911377 1.19366455 C79.42174939 1.18338392 85.31438922 1.17885673 91.20703125 1.17382812 C102.74219873 1.1631451 114.27734721 1.14610614 125.8125 1.125 C125.8125 1.455 125.8125 1.785 125.8125 2.125 C124.92727661 2.16258423 124.92727661 2.16258423 124.02416992 2.20092773 C121.34923186 2.31700052 118.6746362 2.43967572 116 2.5625 C114.6068457 2.62147461 114.6068457 2.62147461 113.18554688 2.68164062 C111.8465332 2.74448242 111.8465332 2.74448242 110.48046875 2.80859375 C109.24719849 2.86358032 109.24719849 2.86358032 107.98901367 2.91967773 C105.63344822 3.05927772 105.63344822 3.05927772 102.8125 4.125 C101.3025565 4.21607131 99.78890189 4.2512782 98.2762146 4.25198364 C96.88068108 4.25621338 96.88068108 4.25621338 95.45695496 4.26052856 C94.43781509 4.25850433 93.41867523 4.2564801 92.36865234 4.25439453 C91.29336777 4.25614685 90.21808319 4.25789917 89.11021423 4.25970459 C85.53960575 4.26412018 81.96904653 4.26118323 78.3984375 4.2578125 C75.90996288 4.25848631 73.42148832 4.25945699 70.93301392 4.26071167 C65.70240783 4.26218881 60.47181451 4.26013179 55.24121094 4.25537109 C48.57859467 4.24937612 41.91602584 4.25292624 35.25340843 4.25894356 C30.10399071 4.26258422 24.95458236 4.26139389 19.80516434 4.25881577 C17.35189433 4.25815399 14.89862344 4.25894836 12.44535446 4.26129532 C-25.44067709 4.28954861 -25.44067709 4.28954861 -30.1875 1.125 C-20.13179572 0.13707116 -10.09910841 0.01483527 0 0 Z " fill="#BFBEBC" transform="translate(264.1875,607.875)"/>
<path d="M0 0 C-0.33 0.66 -0.66 1.32 -1 2 C-4.79964639 3.2665488 -8.47394646 3.35122585 -12.44140625 3.53515625 C-13.34741074 3.57826935 -14.25341522 3.62138245 -15.18687439 3.665802 C-18.31175421 3.8074974 -21.43693052 3.93695024 -24.5625 4.0625 C-25.65626953 4.10702301 -26.75003906 4.15154602 -27.87695312 4.19741821 C-53.63062634 5.19647527 -79.39420369 5.19312085 -105.16370773 5.18803024 C-108.49277621 5.18750115 -111.82184122 5.18867396 -115.15090942 5.18997192 C-120.47969554 5.19094263 -125.80843505 5.18514345 -131.13720894 5.17382431 C-133.12167705 5.16997535 -135.10614843 5.16751555 -137.09062004 5.16656876 C-166.2844441 5.14370393 -166.2844441 5.14370393 -171 2 C-165.45052492 1.09190408 -160.4035433 1.03938871 -154.79443359 1.46435547 C-142.78224945 2.2659679 -130.75975316 2.14432423 -118.7265625 2.1328125 C-116.22455842 2.13348742 -113.7225544 2.13445901 -111.22055054 2.13571167 C-106.01486579 2.13717598 -100.80919834 2.13507259 -95.60351562 2.13037109 C-89.59053214 2.12520522 -83.57759027 2.12672471 -77.56460822 2.1321975 C-71.74948276 2.13727704 -65.93437012 2.13674774 -60.11924362 2.13381577 C-57.65440237 2.13314835 -55.18956025 2.13396846 -52.72472 2.13629532 C-49.29773892 2.13882456 -45.8708238 2.13497924 -42.44384766 2.12939453 C-41.42470779 2.13141876 -40.40556793 2.13344299 -39.35554504 2.13552856 C-38.42518936 2.13270874 -37.49483368 2.12988892 -36.5362854 2.12698364 C-35.72782984 2.12660662 -34.91937428 2.12622959 -34.08642006 2.12584114 C-31.80440124 2.07843302 -31.80440124 2.07843302 -29 1 C-27.55300576 0.85391091 -26.10112034 0.75321358 -24.6484375 0.68359375 C-23.79636719 0.64169922 -22.94429687 0.59980469 -22.06640625 0.55664062 C-20.73416016 0.49766602 -20.73416016 0.49766602 -19.375 0.4375 C-18.07755859 0.37272461 -18.07755859 0.37272461 -16.75390625 0.30664062 C-11.16311343 0.04260768 -5.59680433 -0.0397339 0 0 Z " fill="#E1E0DE" transform="translate(399,609)"/>
<path d="M0 0 C1.9964315 0.00444644 3.99286746 0.00717327 5.98930359 0.00831604 C11.3918888 0.01679507 16.79403442 0.05072507 22.19646978 0.09040833 C27.85245516 0.12874746 33.50851222 0.14726543 39.1645813 0.16894531 C48.6552518 0.20861827 58.14571106 0.26526836 67.63623047 0.33154297 C78.61593144 0.40796304 89.59547753 0.45537466 100.57538974 0.48783207 C110.00408862 0.51645001 119.43262166 0.56055458 128.86119092 0.61771297 C134.49221472 0.65184078 140.12312739 0.68057671 145.75423813 0.69540405 C151.04203522 0.71019791 156.32935391 0.74439239 161.61693764 0.79377556 C163.56038818 0.80872687 165.50390465 0.81684627 167.44741249 0.81775093 C170.09355354 0.82008098 172.73833833 0.84678062 175.38424683 0.87988281 C176.15923173 0.87485087 176.93421663 0.86981894 177.73268592 0.86463451 C182.93996828 0.96703846 182.93996828 0.96703846 185.39154243 3.4598999 C185.72140081 4.10864075 186.05125919 4.75738159 186.39111328 5.42578125 C185.1228772 5.10144608 183.85464111 4.7771109 182.54797363 4.44294739 C174.41055506 2.83054535 166.14001339 3.13837327 157.88134766 3.15112305 C156.01434628 3.1467702 154.1473467 3.14158514 152.28034973 3.13563538 C147.23289048 3.12229776 142.18550634 3.12166071 137.13803291 3.12419868 C132.91589495 3.12527166 128.69377198 3.12037681 124.47163725 3.11559325 C114.50842374 3.10451681 104.54524793 3.10405058 94.58203125 3.11010742 C84.31980748 3.11615024 74.05772071 3.10382405 63.79552031 3.08253735 C54.96720112 3.06490149 46.13892546 3.05892301 37.31058931 3.0621751 C32.04541576 3.06398446 26.78034002 3.06138608 21.5151825 3.04746056 C16.56402686 3.03485403 11.61308448 3.03685303 6.66193199 3.04987144 C4.85038365 3.05223038 3.03882016 3.04952713 1.2272892 3.04124832 C-14.98995855 2.86783962 -14.98995855 2.86783962 -29.48388672 9.48828125 C-32.12355476 11.40228409 -34.65235457 13.04032112 -37.60888672 14.42578125 C-37.22449749 11.94860625 -36.85431684 10.67622015 -35.07763672 8.86328125 C-34.42794922 8.38890625 -33.77826172 7.91453125 -33.10888672 7.42578125 C-32.47982422 6.95140625 -31.85076172 6.47703125 -31.20263672 5.98828125 C-30.34669922 5.47265625 -29.49076172 4.95703125 -28.60888672 4.42578125 C-28.1031053 4.09161697 -27.59732388 3.7574527 -27.07621574 3.41316223 C-18.77147952 -1.20369082 -9.19529352 -0.08812705 0 0 Z " fill="#998A98" transform="translate(233.60888671875,43.57421875)"/>
<path d="M0 0 C2.4375 1.25 2.4375 1.25 4.4375 4.25 C5.10842652 10.40015974 5.10842652 10.40015974 2.5625 13.625 C-0.56281773 16.01494885 -2.23084275 16.37388144 -6.10400391 16.36352539 C-7.04482819 16.36344986 -7.98565247 16.36337433 -8.95498657 16.36329651 C-9.97273163 16.35813522 -10.99047668 16.35297394 -12.0390625 16.34765625 C-13.07944672 16.3462413 -14.11983093 16.34482635 -15.19174194 16.34336853 C-18.52369021 16.33775866 -21.85557195 16.32520447 -25.1875 16.3125 C-27.44270736 16.30748627 -29.69791578 16.30292314 -31.953125 16.29882812 C-37.48960614 16.28778603 -43.02604832 16.27103827 -48.5625 16.25 C-48.8925 15.59 -49.2225 14.93 -49.5625 14.25 C-36.0325 13.92 -22.5025 13.59 -8.5625 13.25 C-9.0575 10.775 -9.0575 10.775 -9.5625 8.25 C-7.625 5.625 -7.625 5.625 -5.5625 3.25 C-5.5625 2.26 -5.5625 1.27 -5.5625 0.25 C-2.5625 -0.75 -2.5625 -0.75 0 0 Z " fill="#21201F" transform="translate(337.5625,64.75)"/>
<path d="M0 0 C1.47413109 -0.00450165 1.47413109 -0.00450165 2.9780426 -0.00909424 C4.57627113 0.00942596 4.57627113 0.00942596 6.20678711 0.02832031 C7.86767616 0.03113007 7.86767616 0.03113007 9.56211853 0.03399658 C11.91676829 0.04073073 14.27140661 0.05467199 16.62597656 0.07519531 C20.1679975 0.10587254 23.70956936 0.11612338 27.25170898 0.12207031 C39.92120167 0.16625571 52.53228499 0.4690392 65.17163086 1.35644531 C64.84163086 2.01644531 64.51163086 2.67644531 64.17163086 3.35644531 C57.05275232 4.7298805 49.5355289 4.50503297 42.30834961 4.48925781 C41.31390335 4.49021454 40.31945709 4.49117126 39.2948761 4.49215698 C37.20667456 4.49283243 35.11847085 4.49102289 33.03027344 4.48681641 C29.87747346 4.48147638 26.72481702 4.48677442 23.57202148 4.49316406 C13.05879568 4.49627402 2.64517346 4.36331823 -7.82836914 3.35644531 C-5.38267467 0.34027463 -3.82927012 -0.01617961 0 0 Z " fill="#8E8D8B" transform="translate(289.828369140625,604.6435546875)"/>
<path d="M0 0 C4.83688904 0.01151567 9.67356072 0.00454944 14.51044273 -0.0069046 C52.78403577 -0.08330457 52.78403577 -0.08330457 70.81958008 2.26074219 C70.81958008 2.92074219 70.81958008 3.58074219 70.81958008 4.26074219 C69.49958008 4.59074219 68.17958008 4.92074219 66.81958008 5.26074219 C66.81958008 4.60074219 66.81958008 3.94074219 66.81958008 3.26074219 C62.17371116 3.74558494 62.17371116 3.74558494 57.81958008 5.26074219 C56.82958008 4.93074219 55.83958008 4.60074219 54.81958008 4.26074219 C50.41844791 3.73706426 45.9919916 3.48049873 41.56958008 3.19824219 C40.87639679 3.15371918 40.1832135 3.10919617 39.46902466 3.06332397 C24.2400945 2.12742264 9.01033518 2.0682082 -6.24291992 2.07324219 C-7.39771851 2.07242645 -8.55251709 2.07161072 -9.74230957 2.07077026 C-22.10360872 2.07175692 -34.44887869 2.22860067 -46.80151367 2.70996094 C-47.8339772 2.74845657 -48.86644073 2.78695221 -49.93019104 2.82661438 C-50.8705571 2.86763779 -51.81092316 2.90866119 -52.77978516 2.95092773 C-54.02295753 3.00412422 -54.02295753 3.00412422 -55.29124451 3.05839539 C-57.19086678 3.06192942 -57.19086678 3.06192942 -58.18041992 4.26074219 C-61.04309559 4.33399387 -63.88113892 4.35312424 -66.74291992 4.32324219 C-67.54922852 4.31873047 -68.35553711 4.31421875 -69.1862793 4.30957031 C-71.18435748 4.29774736 -73.18239775 4.27981133 -75.18041992 4.26074219 C-75.51041992 3.60074219 -75.84041992 2.94074219 -76.18041992 2.26074219 C-50.77259038 0.55992295 -25.46211356 -0.06138616 0 0 Z " fill="#C9C8C6" transform="translate(324.180419921875,601.7392578125)"/>
<path d="M0 0 C2.07179079 3.10768619 2.24907628 3.7541877 2.24050903 7.27104187 C2.24325836 8.14182373 2.24600769 9.01260559 2.24884033 9.90977478 C2.24164978 10.86211502 2.23445923 11.81445526 2.22705078 12.7956543 C2.22734283 13.80071014 2.22763489 14.80576599 2.22793579 15.84127808 C2.22654055 19.16901227 2.21097005 22.49652359 2.1953125 25.82421875 C2.19158307 28.12921527 2.18873577 30.43421337 2.18673706 32.73921204 C2.17909514 38.81047938 2.1594418 44.88165127 2.1373291 50.95288086 C2.11688273 57.14630848 2.10773793 63.3397515 2.09765625 69.53320312 C2.07619649 81.68884406 2.04205376 93.8444141 2 106 C2.66 106 3.32 106 4 106 C3.91570922 113.78865681 3.82087035 121.5771068 3.71247292 129.36546135 C3.6624757 132.98172018 3.61614629 136.59794932 3.578125 140.21435547 C3.54131498 143.70283089 3.49496736 147.19105986 3.44193649 150.6793251 C3.41431889 152.66128773 3.39664221 154.64338072 3.37905884 156.62545776 C3.35918915 157.82655182 3.33931946 159.02764587 3.31884766 160.26513672 C3.30552399 161.32658905 3.29220032 162.38804138 3.2784729 163.48165894 C3 166 3 166 1 168 C0.67 112.56 0.34 57.12 0 0 Z " fill="#564754" transform="translate(443,75)"/>
<path d="M0 0 C4.96695632 0.01086182 9.9338851 0.01046675 14.90085125 0.00986195 C19.76132454 0.01013631 24.62178076 0.01565819 29.48224831 0.02286339 C31.76671025 0.02599447 34.05117408 0.02800406 36.33563805 0.0287571 C50.92644068 0.03885412 65.45462152 0.4068854 80.02459717 1.19561768 C80.02459717 2.18561768 80.02459717 3.17561768 80.02459717 4.19561768 C79.46314499 4.13634094 78.90169281 4.07706421 78.32322693 4.01599121 C57.75647196 1.9401263 37.25792419 1.88542323 16.60784912 1.93487549 C11.83771141 1.94616361 7.06779993 1.93958453 2.29767036 1.92795563 C-18.6237587 1.88531381 -39.45220247 2.22084519 -60.33409119 3.5847168 C-68.64159561 4.10960155 -76.68620865 4.23059584 -84.97540283 3.19561768 C-84.97540283 2.86561768 -84.97540283 2.53561768 -84.97540283 2.19561768 C-56.67066865 -0.18711464 -28.38556469 -0.07825395 0 0 Z " fill="#D4D3D1" transform="translate(318.97540283203125,600.8043823242188)"/>
<path d="M0 0 C3.79164893 -0.02994619 7.5832663 -0.04710433 11.375 -0.0625 C12.4165625 -0.07087891 13.458125 -0.07925781 14.53125 -0.08789062 C20.01677016 -0.10441328 25.46728867 -0.00113061 30.94293404 0.34816837 C42.10862501 1.05959306 53.26013608 1.21725944 64.4453125 1.31640625 C66.43741214 1.33704388 68.42950808 1.35804175 70.42160034 1.37937927 C75.59988353 1.43389858 80.77820146 1.4836093 85.95654297 1.53222656 C91.26663205 1.5829625 96.57667228 1.63837325 101.88671875 1.69335938 C112.25777052 1.80007946 122.62886518 1.9017061 133 2 C133 2.33 133 2.66 133 3 C118.56023593 3.02348764 104.12047487 3.04098964 89.68069553 3.05181217 C82.97421642 3.05694173 76.26775103 3.06404785 69.5612793 3.07543945 C63.07734489 3.0863829 56.59342284 3.09230089 50.1094799 3.09487724 C47.64783471 3.09671099 45.18619012 3.1002914 42.72455025 3.10573006 C4.77923446 3.18615631 4.77923446 3.18615631 0 0 Z " fill="#CECDCB" transform="translate(234,609)"/>
<path d="M0 0 C7.00312958 0.6565434 14.32857641 5.93126461 19 11 C23.05775852 16.47462048 26.22024422 21.12397172 27 28 C25 26 25 26 24 24 C24.33 25.65 24.66 27.3 25 29 C22 28 22 28 20.7109375 25.55859375 C20.27007812 24.52863281 19.82921875 23.49867187 19.375 22.4375 C14.84795706 13.01363091 8.27057847 8.30419715 -1 4 C-1.33 3.34 -1.66 2.68 -2 2 C-0.68 2 0.64 2 2 2 C1.34 1.34 0.68 0.68 0 0 Z " fill="#584757" transform="translate(416,46)"/>
<path d="M0 0 C-0.33 0.66 -0.66 1.32 -1 2 C-3.81847678 2.93949226 -5.80290826 3.18766277 -8.7376709 3.31297302 C-9.69257668 3.35444741 -10.64748245 3.3959218 -11.63132477 3.43865299 C-13.1779694 3.49693602 -13.1779694 3.49693602 -14.75585938 3.55639648 C-15.82911217 3.59857772 -16.90236496 3.64075895 -18.00814056 3.68421841 C-28.97575903 4.08462001 -39.93278734 4.12758472 -50.90625 4.09765625 C-52.97945114 4.09578317 -55.05265274 4.0943635 -57.12585449 4.09336853 C-62.49150897 4.08961327 -67.85713487 4.07984591 -73.22277832 4.06866455 C-78.73445245 4.05829693 -84.24613136 4.05383859 -89.7578125 4.04882812 C-100.50522065 4.03821472 -111.25260792 4.0212264 -122 4 C-122 3.67 -122 3.34 -122 3 C-120.31870247 2.9845388 -120.31870247 2.9845388 -118.60343933 2.96876526 C-108.05284291 2.87111179 -97.50230652 2.76838535 -86.95180798 2.66066074 C-81.52738171 2.60543919 -76.10295005 2.55202034 -70.6784668 2.50268555 C-65.44593362 2.45503077 -60.21346662 2.40268744 -54.98101234 2.34705925 C-52.98229935 2.32664077 -50.98356821 2.30792684 -48.98482323 2.29092598 C-46.19058024 2.26687086 -43.39646254 2.23681767 -40.60229492 2.20532227 C-39.77151428 2.1995668 -38.94073364 2.19381134 -38.08477783 2.18788147 C-34.80886078 2.14576504 -32.1290888 2.0430296 -29 1 C-27.55300576 0.85391091 -26.10112034 0.75321358 -24.6484375 0.68359375 C-23.79636719 0.64169922 -22.94429688 0.59980469 -22.06640625 0.55664062 C-21.17824219 0.51732422 -20.29007812 0.47800781 -19.375 0.4375 C-18.07755859 0.37272461 -18.07755859 0.37272461 -16.75390625 0.30664062 C-11.16311343 0.04260768 -5.59680433 -0.0397339 0 0 Z " fill="#D8D7D5" transform="translate(399,609)"/>
<path d="M0 0 C0.33 0 0.66 0 1 0 C1 28.71 1 57.42 1 87 C0.01 86.34 -0.98 85.68 -2 85 C-1.34 85 -0.68 85 0 85 C0 79.06 0 73.12 0 67 C-0.66 67 -1.32 67 -2 67 C-2 60.07 -2 53.14 -2 46 C-1.34 46 -0.68 46 0 46 C0 30.82 0 15.64 0 0 Z " fill="#5A5158" transform="translate(183,82)"/>
<path d="M0 0 C2.8363758 1.4181879 3.13989381 3.54232944 4.25610352 6.37133789 C9.30883605 19.11319642 15.6420797 24.84442624 27.92578125 30.5546875 C31 32 31 32 34 34 C22.17255318 33.22864477 14.0604159 26.0604159 6 18 C5.67 18.66 5.34 19.32 5 20 C2.9375 17.1875 2.9375 17.1875 1 14 C1.33 13.01 1.66 12.02 2 11 C1.72793135 9.3222433 1.38499891 7.65549531 1 6 C0.66055205 4.00102872 0.32578384 2.00124361 0 0 Z " fill="#554B52" transform="translate(186,544)"/>
<path d="M0 0 C0 0.33 0 0.66 0 1 C-0.66644531 1.14695313 -1.33289063 1.29390625 -2.01953125 1.4453125 C-12.27661873 3.94144288 -22.11657958 7.79587604 -28 17 C-30.72200816 21.85095309 -32.97352074 26.82326661 -35 32 C-35.33 32 -35.66 32 -36 32 C-35.71769203 24.51883867 -32.81655817 19.34925886 -29 13 C-29.99 13.66 -30.98 14.32 -32 15 C-30.63016497 11.83884224 -30.0109362 11.0072908 -27 9 C-27 9.66 -27 10.32 -27 11 C-26.29875 10.45730469 -25.5975 9.91460937 -24.875 9.35546875 C-16.62597658 3.13507745 -10.51886838 -0.56351081 0 0 Z " fill="#554852" transform="translate(223,47)"/>
<path d="M0 0 C16.14040567 -0.25140819 31.95435339 0.19928615 48 2 C48 2.66 48 3.32 48 4 C46.68 4.33 45.36 4.66 44 5 C44 4.34 44 3.68 44 3 C39.35413108 3.48484276 39.35413108 3.48484276 35 5 C34.01 4.67 33.02 4.34 32 4 C21.37621779 2.3556903 10.72800834 1.5421068 0 1 C0 0.67 0 0.34 0 0 Z " fill="#D0CFCD" transform="translate(347,602)"/>
<path d="M0 0 C1.48831242 0.00667405 2.97660807 0.01863442 4.46484375 0.03515625 C5.22345703 0.03966797 5.98207031 0.04417969 6.76367188 0.04882812 C8.64326246 0.06064945 10.52281274 0.07858547 12.40234375 0.09765625 C12.07234375 0.75765625 11.74234375 1.41765625 11.40234375 2.09765625 C4.12633657 3.51721958 -3.56736554 3.23455915 -10.953125 3.1953125 C-12.49459953 3.19319008 -12.49459953 3.19319008 -14.06721497 3.19102478 C-17.30656004 3.18548691 -20.54583254 3.17294655 -23.78515625 3.16015625 C-25.99934795 3.1551332 -28.21354075 3.15057171 -30.42773438 3.14648438 C-35.81773253 3.13553794 -41.2076892 3.11886315 -46.59765625 3.09765625 C-46.59765625 2.76765625 -46.59765625 2.43765625 -46.59765625 2.09765625 C-45.33058838 2.0726001 -44.06352051 2.04754395 -42.75805664 2.02172852 C-38.07467846 1.92783629 -33.39145495 1.8275719 -28.70825195 1.7253418 C-26.67801521 1.68192384 -24.64774033 1.64025399 -22.61743164 1.6003418 C-19.70577474 1.54280479 -16.79431111 1.47906347 -13.8828125 1.4140625 C-12.51250633 1.38899376 -12.51250633 1.38899376 -11.11451721 1.36341858 C-6.99076278 1.26559558 -3.87791078 0.10526359 0 0 Z " fill="#9B9A98" transform="translate(342.59765625,605.90234375)"/>
<path d="M0 0 C17.03764722 -0.11689329 33.98581248 0.01874923 51 1 C51 1.99 51 2.98 51 4 C50.34330322 3.94465088 49.68660645 3.88930176 49.01000977 3.83227539 C32.68047984 2.47301352 16.37758882 1.52255342 0 1 C0 0.67 0 0.34 0 0 Z " fill="#DBDAD8" transform="translate(348,601)"/>
<path d="M0 0 C2.475 0.99 2.475 0.99 5 2 C1.63637064 4.01122151 -1.04292811 4.29778082 -4.93359375 4.4140625 C-6.72385986 4.47219116 -6.72385986 4.47219116 -8.55029297 4.53149414 C-9.83307129 4.56235107 -11.11584961 4.59320801 -12.4375 4.625 C-13.75379395 4.66294678 -15.07008789 4.70089355 -16.42626953 4.73999023 C-30.2823435 5.11766275 -44.13998651 5.10061435 -58 5 C-58 4.67 -58 4.34 -58 4 C-38.86 3.34 -19.72 2.68 0 2 C0 1.34 0 0.68 0 0 Z " fill="#E3E2E0" transform="translate(401,609)"/>
<path d="M0 0 C1.38606606 0.00503316 2.77213393 0.0095928 4.15820312 0.01367188 C7.50134975 0.02532047 10.84440011 0.04167571 14.1875 0.0625 C14.1875 0.3925 14.1875 0.7225 14.1875 1.0625 C13.46570557 1.08755615 12.74391113 1.1126123 12.00024414 1.13842773 C8.749965 1.25401302 5.50000312 1.37690774 2.25 1.5 C1.11369141 1.53931641 -0.02261719 1.57863281 -1.19335938 1.61914062 C-2.81274414 1.68198242 -2.81274414 1.68198242 -4.46484375 1.74609375 C-5.46507568 1.78275146 -6.46530762 1.81940918 -7.49584961 1.85717773 C-9.77319188 1.80921841 -9.77319188 1.80921841 -10.8125 3.0625 C-13.67517567 3.13575168 -16.513219 3.15488205 -19.375 3.125 C-20.18130859 3.12048828 -20.98761719 3.11597656 -21.81835938 3.11132812 C-23.81643756 3.09950518 -25.81447783 3.08156914 -27.8125 3.0625 C-28.1425 2.4025 -28.4725 1.7425 -28.8125 1.0625 C-19.19213172 0.15189636 -9.65804258 -0.06203809 0 0 Z " fill="#C1C0BE" transform="translate(276.8125,602.9375)"/>
<path d="M0 0 C9.4307241 3.42935422 13.81260621 7.45927778 19 16 C19.41636719 16.680625 19.83273437 17.36125 20.26171875 18.0625 C21 20 21 20 20 24 C18.68 21.03 17.36 18.06 16 15 C15.34 15 14.68 15 14 15 C12.7734375 13.4609375 12.7734375 13.4609375 11.375 11.375 C8.55960296 7.45156304 5.50057455 4.85151846 1.5390625 2.12890625 C1.03117187 1.75636719 0.52328125 1.38382813 0 1 C0 0.67 0 0.34 0 0 Z " fill="#746573" transform="translate(422,50)"/>
<path d="M0 0 C0.66 0 1.32 0 2 0 C1.84402344 0.69867187 1.68804687 1.39734375 1.52734375 2.1171875 C1.33269531 3.02726563 1.13804687 3.93734375 0.9375 4.875 C0.74027344 5.77992188 0.54304688 6.68484375 0.33984375 7.6171875 C-0.23202157 10.01014125 -0.23202157 10.01014125 1 12 C-0.89732848 16.11087838 -3.0054207 17.94872955 -7 20 C-6.57785989 14.93431873 -5.38204549 11.34135048 -2.98828125 6.8671875 C-1.81059621 4.64215411 -0.88336356 2.35563615 0 0 Z " fill="#5B4B55" transform="translate(440,546)"/>
<path d="M0 0 C0 4.61020409 -2.46151294 7.9770386 -4.58984375 11.9921875 C-6.0988257 14.87841391 -6.0988257 14.87841391 -6.50390625 17.7578125 C-7 20 -7 20 -10 22 C-10.9826183 14.79413248 -7.82297825 8.99751633 -4 3 C-1.796875 1.140625 -1.796875 1.140625 0 0 Z " fill="#7F747B" transform="translate(194,59)"/>
<path d="M0 0 C-0.99 0.495 -0.99 0.495 -2 1 C2.29 1.33 6.58 1.66 11 2 C11 2.33 11 2.66 11 3 C0.60330359 3.1132812 -9.63496744 2.91987611 -20 2 C-19.67 1.34 -19.34 0.68 -19 0 C-16.5300469 -0.34263523 -14.16977448 -0.55978709 -11.6875 -0.6875 C-11.01009766 -0.73455078 -10.33269531 -0.78160156 -9.63476562 -0.83007812 C-6.23924953 -1.0325478 -3.2416916 -1.10834186 0 0 Z " fill="#A5A4A2" transform="translate(285,606)"/>
<path d="M0 0 C0.33 1.32 0.66 2.64 1 4 C1.99 3.34 2.98 2.68 4 2 C2.63016497 5.16115776 2.0109362 5.9927092 -1 8 C-1 7.34 -1 6.68 -1 6 C-1.65226562 6.48210938 -2.30453125 6.96421875 -2.9765625 7.4609375 C-11.6572935 13.73462214 -11.6572935 13.73462214 -17 15 C-17 14.34 -17 13.68 -17 13 C-15.14323282 11.85099575 -13.23733986 10.78091544 -11.3125 9.75 C-6.39995833 6.98343285 -3.16624603 4.63628883 0 0 Z " fill="#574A53" transform="translate(433,561)"/>
<path d="M0 0 C0.99 1.0209375 0.99 1.0209375 2 2.0625 C7.89848149 7.91113516 13.36246979 12.5903883 21 16 C20.01 16.33 19.02 16.66 18 17 C16.23395754 16.05156979 14.47113566 15.09246614 12.765625 14.0390625 C10.92117574 12.8792198 10.92117574 12.8792198 8.375 12.0625 C5.09656629 10.59583229 3.26741835 8.77128909 1 6 C0.1875 2.6875 0.1875 2.6875 0 0 Z " fill="#8E8089" transform="translate(191,560)"/>
<path d="M0 0 C0.33 0 0.66 0 1 0 C1.0289337 3.79165074 1.04677601 7.58327327 1.0625 11.375 C1.07087891 12.45523438 1.07925781 13.53546875 1.08789062 14.6484375 C1.09111328 15.6796875 1.09433594 16.7109375 1.09765625 17.7734375 C1.10289307 18.72653809 1.10812988 19.67963867 1.11352539 20.66162109 C1 23 1 23 0 25 C-0.66 25 -1.32 25 -2 25 C-1.86185777 21.0205267 -1.71320326 17.04151585 -1.5625 13.0625 C-1.52318359 11.92619141 -1.48386719 10.78988281 -1.44335938 9.61914062 C-1.40146484 8.53955078 -1.35957031 7.45996094 -1.31640625 6.34765625 C-1.27974854 5.34742432 -1.24309082 4.34719238 -1.20532227 3.31665039 C-1 1 -1 1 0 0 Z " fill="#543347" transform="translate(183,234)"/>
<path d="M0 0 C4.6875 1.82291667 4.6875 1.82291667 6.875 3.0625 C9.84865076 4.37440475 12.78554406 4.60524225 16 5 C17.66934283 5.31966139 19.3373217 5.64731066 21 6 C20.67 6.99 20.34 7.98 20 9 C12.8954276 8.00624979 6.90390702 6.19594303 1 2 C0.67 1.34 0.34 0.68 0 0 Z " fill="#756871" transform="translate(200,572)"/>
<path d="M0 0 C8.91 0 17.82 0 27 0 C27 0.66 27 1.32 27 2 C25.68 2.33 24.36 2.66 23 3 C23 2.34 23 1.68 23 1 C18.35413108 1.48484276 18.35413108 1.48484276 14 3 C13.01 2.67 12.02 2.34 11 2 C9.10787263 1.77820215 7.21115528 1.59385985 5.3125 1.4375 C4.31863281 1.35371094 3.32476562 1.26992188 2.30078125 1.18359375 C1.16189453 1.09271484 1.16189453 1.09271484 0 1 C0 0.67 0 0.34 0 0 Z " fill="#C8C7C5" transform="translate(368,604)"/>
<path d="M0 0 C2 3 2 3 1.75 5.8125 C1.0013452 8.99428289 0.26334402 11.98201151 -1 15 C-1.99 15.33 -2.98 15.66 -4 16 C-2.84941444 10.60204011 -1.57578241 5.29012667 0 0 Z " fill="#8C7984" transform="translate(443,541)"/>
<path d="M0 0 C1.65 0.33 3.3 0.66 5 1 C4.67 2.65 4.34 4.3 4 6 C2.35 6 0.7 6 -1 6 C-1 2 -1 2 0 0 Z " fill="#293544" transform="translate(330,70)"/>
<path d="M0 0 C3.43902819 2.29268546 3.64852447 3.11043452 4.75 6.9375 C5.14445313 8.25041016 5.14445313 8.25041016 5.546875 9.58984375 C6 12 6 12 5 15 C1.73761124 11.73761124 0.77617383 8.7966367 0.375 4.25 C0.30023438 3.45078125 0.22546875 2.6515625 0.1484375 1.828125 C0.09945312 1.22484375 0.05046875 0.6215625 0 0 Z " fill="#857781" transform="translate(184,544)"/>
<path d="M0 0 C-0.57344937 2.86724686 -0.8614515 3.8614515 -3 6 C-5.63233792 6.8563027 -8.29546818 7.38929927 -11 8 C-3.28571429 0 -3.28571429 0 0 0 Z " fill="#897C85" transform="translate(432,567)"/>
<path d="M0 0 C5.15464734 0.48324819 8.81550319 3.18610761 13 6 C9.07103605 6 5.80106772 4.99700137 2 4 C2 3.34 2 2.68 2 2 C1.34 1.34 0.68 0.68 0 0 Z " fill="#685767" transform="translate(416,46)"/>
<path d="M0 0 C-1.125 1.5 -1.125 1.5 -3 3 C-6.1875 3.1875 -6.1875 3.1875 -9 3 C-9 2.34 -9 1.68 -9 1 C-2.25 -1.125 -2.25 -1.125 0 0 Z " fill="#E0D7DC" transform="translate(419,579)"/>
<path d="M0 0 C0.66 0 1.32 0 2 0 C1.8125 2.3125 1.8125 2.3125 1 5 C-1.5625 6.8125 -1.5625 6.8125 -4 8 C-2.87548273 5.0280615 -1.77706209 2.66559313 0 0 Z " fill="#8F7E89" transform="translate(437,558)"/>
<path d="M0 0 C3.0831351 1.19899698 6.06279492 2.47700477 9 4 C9 4.66 9 5.32 9 6 C4.75177626 5.52797514 2.80010291 3.03344482 0 0 Z " fill="#927E91" transform="translate(422,50)"/>
<path d="M0 0 C1.9375 0.5625 1.9375 0.5625 4 2 C4.75 5.625 4.75 5.625 5 9 C1.7457985 6.16569547 0.4793247 4.31392226 0 0 Z " fill="#665A62" transform="translate(187,555)"/>
</svg>
